<?xml version="1.0" encoding="utf-8"?>
<!-- Generator: Adobe Illustrator 24.0.1, SVG Export Plug-In . SVG Version: 6.00 Build 0)  -->
<svg version="1.1" xmlns="http://www.w3.org/2000/svg" xmlns:xlink="http://www.w3.org/1999/xlink" x="0px" y="0px"
	 viewBox="0 0 500 500" style="enable-background:new 0 0 500 500;" xml:space="preserve">
<style type="text/css">
	.st0{fill:#F5F5F5;}
	.st1{fill:#E6E6E6;}
	.st2{fill:#FFA8A7;}
	.st3{fill:#37474F;}
	.st4{fill:#263238;}
	.st5{fill:#455A64;}
	.st6{fill:#27DEBF;}
	.st7{fill:#F28F8F;}
	.st8{opacity:0.15;}
	.st9{opacity:0.2;}
	.st10{opacity:0.5;fill:#FFFFFF;}
	.st11{fill:none;stroke:#E0E0E0;stroke-width:3;stroke-linecap:round;stroke-linejoin:round;stroke-miterlimit:10;}
	.st12{fill:#B16668;}
	.st13{opacity:0.6;}
	.st14{fill:#E0E0E0;}
	.st15{opacity:0.35;}
	.st16{opacity:0.1;}
</style>
<g id="Floor">
	<ellipse id="Floor_3_" class="st0" cx="249.03" cy="368.25" rx="228.44" ry="118.95"/>
</g>
<g id="Shadows">
	<ellipse id="Shadow_8_" class="st1" cx="395.38" cy="348.61" rx="60.93" ry="35.18"/>
	<g id="Shadow_21_">
		<path id="Shadow_16_" class="st1" d="M149.99,327.73c23.31,13.46,24.26,35.68,0.95,49.14c-23.31,13.46-62.06,13.06-85.37-0.4
			c-23.31-13.46-23.31-35.28,0-48.74C88.88,314.27,126.67,314.27,149.99,327.73z"/>
		<path id="Shadow_3_" class="st1" d="M340.14,400.26l-76.52-44.18c-2.39-1.38-6.27-1.38-8.66,0l-76.52,44.18
			c-2.39,1.38-2.39,3.62,0,5l34.85,20.12l-32.55,18.78c-6.61,3.82-17.37,3.81-23.98,0l-51.2-29.56c-2.83-1.63-4.38-3.68-4.38-5.77
			c0-2.09,1.56-4.14,4.38-5.77l45.37-26.2c0.96-0.55,1.28-1.78,0.73-2.73c-0.55-0.96-1.78-1.29-2.73-0.73l-45.37,26.2
			c-4.12,2.38-6.38,5.66-6.38,9.23c0,3.58,2.27,6.86,6.38,9.23l51.2,29.56c3.92,2.27,8.96,3.4,13.99,3.4
			c5.03,0,10.07-1.13,13.99-3.39l34.55-19.94l37.67,21.75c2.39,1.38,6.27,1.38,8.66,0l76.52-44.18
			C342.53,403.88,342.53,401.64,340.14,400.26z"/>
	</g>
</g>
<g id="Character_2">
	<g id="Character_18_">
		<g id="Bottom">
			<path class="st2" d="M427.58,332.09c0,0,2.78-41.18,1.96-56.36c-0.65-12.03-2.28-16.99-2.62-19.71c0,0-2.95-28.05-3.19-51.89
				c-0.12-11.47-1.18-19.64-7.47-33.28l-40.43,9.67c-0.82,6.06-3.6,46.36-4.26,82.19c-0.57,31.37,0.32,58.83,0.32,58.83l0.04,1.65
				c0,1.83-0.4,3.11-1.58,6.06c-1.19,2.98-3.37,7.24-6.26,10.36c-0.83,0.9-6.6,5.94-7.36,7.02c-2.48,2.89,2.65,4.52,6.46,4.01
				c4.02-0.54,10.27-2.06,12.04-4.51c1.18-1.63,2.07-7.35,3.28-9c4.09-5.58,5.77-7.97,5.8-9.76c0.05-3.22-1.05-4.49-1.45-6.31
				c0.33-3.8,8.53-35.05,8.67-46.12c0.07-5.27-0.29-12.53-0.29-12.53l6.36-36.52c2.46,9.12,6.78,31.77,8.23,40.46
				c1.78,10.62,6.41,37.87,9.14,54.14c1.06,6.27,1.55,9.44,2.03,12.35c0,0.01,0.12,1.23,0.12,1.25c0.09,1.57,1.23,18.48,1.86,22.02
				c1.3,7.39,7.87,6.46,8.92,0.48c0.9-5.09-0.23-20.84-0.25-22.77L427.58,332.09z"/>
			<path id="XMLID_1116_" class="st3" d="M427.58,332.09c1.85,0.03,0.63,7.21,1.11,11.82c0.51,4.95,2.14,8.56,2.6,12.62
				c0.53,4.64,0.12,6.58-1.55,10.39c-1.29,2.96-7.79,7.03-10.26,2.79c-2.5-4.29-3-9.08-2.72-13.7c0.29-4.77,0-7.73,0.1-11.35
				c0.09-3.2-2.26-11.37,0.14-11.83l0.12,1.25c0.86,1.72,9.64,2.07,10.53-0.27L427.58,332.09z"/>
			<g id="XMLID_1109_">
				<g id="XMLID_1110_">
					<path id="XMLID_1114_" class="st4" d="M384.7,331.27c0.57,2.31-0.02,8.65-0.02,8.65s-1,2.19-4.57,3.64l-1.6-8.82L384.7,331.27z
						"/>
					<polygon id="XMLID_1113_" points="380.11,343.56 372.25,340.98 370.35,334 379.19,338.47 					"/>
					<path id="XMLID_1111_" class="st3" d="M371.93,323.19l-0.04-1.65c-1.07,0.52-3.42,9.12-6.6,15.03
						c-2.9,5.39-8.66,8.39-10.52,10.74c-2.5,3.14,2.36,7.18,10.15,5.51c3.87-0.83,9.73-3.3,11.32-5.91
						c1.59-2.61,2.13-7.41,3.42-9.33c1.3-1.92,4.38-4.13,5.04-6.32c0.36-1.2,0.65-3.86-0.02-6.03c-0.61-1.99-1.14-4.39-1.82-4.18
						l-0.05,1.51c-0.52,1.06-2.4,2.3-6.34,2.52C374.61,325.19,372.79,324.9,371.93,323.19z"/>
				</g>
			</g>
			<path class="st5" d="M375.05,180.03c0,0-2.67,29.67-3.53,55.94c-0.86,26.28-0.09,60.17-0.09,60.17s2.71,1.94,8.68,2.21
				c5.97,0.27,8.04-1.72,8.04-1.72s3.65-11.91,4.22-20.29c0.57-8.38,0-13.63,0-13.63l5.33-35.06c0,0,6.76,34.52,7.53,38.69
				c0.77,4.17,7.25,41.05,7.25,41.05s2.54,2.35,9.06,2.22c5.76-0.11,7.44-2.18,7.44-2.18s1.39-22.62,1.07-32.28
				c-0.28-8.52-2.22-15.3-2.61-20.82c-0.39-5.52-0.62-36.99-1-48.97c-0.39-11.98-1.47-22.39-11.7-36.8L375.05,180.03z"/>
			<path class="st3" d="M397.7,227.65l-4.43-21.96c0,0-7.74-2.02-11.34-6.74c0,0,1,5.24,8.96,8.59l4.72,21.88l-1.6,22.61
				L397.7,227.65z"/>
		</g>
		<g id="Top">
			<g>
				<path class="st2" d="M318.56,174.53c4.08,0.83,8.51-0.63,8.51-0.63c-1.52-0.86-2.7-1.56-3.37-2.23
					c-1.32-1.33-0.86-2.72-0.4-3.22c0.36-0.39,1.28,0.53,3.36,1.12c2.66,0.75,4.59,0.91,7.15,2.39c0.96,0.55,2.09,0.77,3.2,0.56
					c6.24-1.18,20.79-7.99,27.46-11.56c1.37-5.54,3.72-13.71,6.64-23.88c2.69-9.38,7.01-13.49,13.87-13.33l-0.95,20.36
					c0,0-3.28,14.07-7.34,25.56c-0.71,2.02-3.56,4.34-8.78,6.27c-6.76,2.51-14.92,4.87-24.89,7.6c-3.73,1.02-8.65,2.09-12.38,2.41
					c-10.54,0.9-14.58-2.03-16.02-4.07C310.61,176.18,313.04,173.42,318.56,174.53z"/>
				<path id="XMLID_1106_" class="st6" d="M402.72,123.59l9.62,0.75c-2.62,14.03,7.24,21.53,7.24,21.53l-4.29,17.29
					c0.14,2.13,3.69,9.33,7.12,17.08c-6.45,8.64-38.09,11.59-48.41,4.01c1.59-8.14,2.78-14.33,3.1-17.41l-0.52-11.17
					c-12.93-10.61,2.68-26.78,8.42-31.92l7.22-0.32L402.72,123.59z"/>
			</g>
			<g>
				<path class="st7" d="M443.23,209.68c-1.41-0.98-2.22-3.02-2.06-4.63c0.17-1.61,0.54-3.64,1.2-4.42
					c0.66-0.78,4.87-6.49,6.73-3.17c2.03,3.62,1.59,5.08,1.59,5.08L443.23,209.68z"/>
				<g>
					<path class="st3" d="M430.27,285.99c-3.96,0-8.3-1.3-12.75-3.87l-49.93-28.83c-7.71-4.45-13.99-15.32-13.99-24.23l0-41.89
						c0-2.88-1.49-5.46-3.99-6.9c-2.5-1.44-5.48-1.44-7.97,0l-17.54,10.12c-0.96,0.55-2.18,0.22-2.73-0.73
						c-0.55-0.96-0.22-2.18,0.73-2.73l17.54-10.12c3.75-2.17,8.23-2.16,11.97,0c3.75,2.16,5.99,6.04,5.99,10.37l0,41.89
						c0,7.5,5.49,17.02,11.99,20.77l49.93,28.83c6.39,3.69,12.31,4.33,16.68,1.81c4.37-2.52,6.77-7.97,6.77-15.35v-53.48
						c0-9.06,5.79-19.5,13.19-23.77l12.19-7.04c0.96-0.55,2.18-0.22,2.73,0.73c0.55,0.96,0.22,2.18-0.73,2.73l-12.19,7.04
						c-6.06,3.5-11.19,12.8-11.19,20.3v53.48c0,8.87-3.11,15.55-8.77,18.81C435.82,285.31,433.15,285.99,430.27,285.99z"/>
				</g>
				<g id="Plug">
					<g>
						<path class="st3" d="M343.97,193.29v3.27c0,5.23-3.67,11.6-8.21,14.21l-30.29,17.49l-30.79-17.78l-0.01-26.66l29.89-13.81
							c4.75-2.19,12.28-1.85,16.81,0.76l14.38,8.3C340.3,181.69,343.97,188.06,343.97,193.29z"/>
						<path class="st5" d="M304.58,170.01c4.75-2.19,12.28-1.85,16.81,0.76l14.38,8.3c4.53,2.62,4.35,6.52-0.4,8.71l-29.89,13.8
							l-30.8-17.77L304.58,170.01z"/>
						<path class="st8" d="M308.39,195.18c2.27,1.31,4.1,4.49,4.1,7.11v21.93l-7.01,4.05l-30.79-17.78l-0.01-26.66l7.8-3.6
							L308.39,195.18z"/>
						<g>
							<path class="st3" d="M272.07,179.23c0.74-0.43,1.75-0.36,2.88,0.29L305.23,197c2.27,1.31,4.1,4.49,4.1,7.11v26.08
								c0,1.31-0.46,2.22-1.21,2.65c-0.69,0.39-3.17,1.82-3.85,2.22c-0.74,0.44-1.76,0.38-2.9-0.28l-30.28-17.48
								c-2.27-1.31-4.1-4.49-4.1-7.11v-26.08c0-1.3,0.45-2.23,1.19-2.65C268.88,181.06,271.37,179.63,272.07,179.23z"/>
							<path class="st5" d="M301.38,199.22l-30.28-17.48c-2.27-1.31-4.1-0.25-4.1,2.37v26.08c0,2.62,1.84,5.8,4.1,7.11l30.28,17.48
								c2.27,1.31,4.1,0.25,4.1-2.37l0-26.08C305.48,203.71,303.64,200.53,301.38,199.22z"/>
						</g>
						<g>
							<path class="st6" d="M265.51,229.58l0,4.51c0,1.83,0.63,3.1,1.67,3.7c0.46,0.26,2.26,1.31,2.73,1.58
								c1.04,0.61,2.49,0.53,4.07-0.39l25.05-14.46l0-17.78l-2.72-1.57l-25.05,14.46C268.08,221.46,265.51,225.91,265.51,229.58z
								 M276.84,223.96c0.08,0.32,0.14,0.68,0.14,1.07c0,2.45-1.72,5.44-3.85,6.67c-0.34,0.2-0.67,0.32-0.98,0.4
								c-0.08-0.32-0.14-0.66-0.14-1.05c0-2.45,1.72-5.44,3.85-6.67C276.2,224.19,276.53,224.05,276.84,223.96z"/>
							<path class="st9" d="M269.76,239.26c0.06,0.04,0.11,0.08,0.18,0.12c-0.01,0-0.01-0.01-0.02-0.01
								c-0.03-0.02-0.07-0.04-0.1-0.06c-0.6-0.35-2.21-1.28-2.63-1.53c-1.05-0.58-1.67-1.85-1.67-3.69v-4.51
								c0-1.84,0.64-3.87,1.69-5.67l2.72,1.57c-1.04,1.82-1.68,3.83-1.68,5.67v4.51c0,1.43,0.39,2.52,1.05,3.22
								C269.43,239.03,269.59,239.15,269.76,239.26z"/>
							<path class="st10" d="M299.01,206.74l-25.03,14.46c-1.59,0.92-3.02,2.48-4.06,4.28l-2.72-1.57c1.04-1.8,2.47-3.36,4.05-4.28
								l25.05-14.46L299.01,206.74z"/>
							<path class="st10" d="M270.04,239.45c-0.02-0.01-0.05-0.03-0.07-0.04c0.01,0,0.03,0.01,0.05,0.02
								C270.03,239.44,270.03,239.45,270.04,239.45z"/>
							<path class="st9" d="M270.02,239.43c-0.02-0.01-0.04-0.02-0.05-0.02c-0.02-0.01-0.03-0.02-0.04-0.03
								C269.96,239.4,269.99,239.41,270.02,239.43z"/>
							<path class="st9" d="M276.98,225.03c0-0.4-0.06-0.76-0.13-1.06l0,0c1.64-0.46,2.86,0.58,2.86,2.64
								c0,2.46-1.72,5.44-3.85,6.67c-1.78,1.04-3.3,0.49-3.71-1.17c0.32-0.08,0.64-0.19,0.99-0.4
								C275.25,230.47,276.98,227.49,276.98,225.03z"/>
						</g>
						<g>
							<path class="st6" d="M242.42,216.24l0,4.51c0,1.83,0.63,3.1,1.67,3.7c0.46,0.26,2.26,1.31,2.73,1.58
								c1.04,0.61,2.49,0.53,4.07-0.39l25.05-14.46l0-17.78l-2.72-1.57l-25.05,14.46C244.99,208.13,242.42,212.58,242.42,216.24z
								 M253.75,210.63c0.08,0.32,0.14,0.68,0.14,1.07c0,2.45-1.72,5.44-3.85,6.67c-0.34,0.2-0.67,0.32-0.98,0.4
								c-0.08-0.32-0.14-0.66-0.14-1.05c0-2.45,1.72-5.44,3.85-6.67C253.11,210.85,253.43,210.71,253.75,210.63z"/>
							<path class="st9" d="M246.93,226.1c-0.02-0.01-0.03-0.02-0.05-0.02c-0.02-0.02-0.05-0.03-0.07-0.04
								c-0.47-0.28-2.27-1.33-2.72-1.59c-1.05-0.59-1.67-1.86-1.67-3.7v-4.51c0-0.92,0.16-1.88,0.45-2.84
								c0.29-0.96,0.71-1.92,1.23-2.82l0.01,0.01l2.72,1.56c0,0,0,0.01-0.01,0.01c-0.26,0.45-0.49,0.91-0.69,1.38
								c-0.62,1.42-0.98,2.9-0.98,4.28v4.51c0,1.42,0.39,2.52,1.05,3.22C246.41,225.77,246.66,225.96,246.93,226.1z"/>
							<path class="st10" d="M275.92,193.41l-25.03,14.46c-1.6,0.92-3.02,2.48-4.06,4.28l-2.72-1.56c1.04-1.81,2.47-3.38,4.05-4.3
								l25.05-14.46L275.92,193.41z"/>
							<path class="st10" d="M246.95,226.12c-0.02-0.01-0.04-0.02-0.07-0.04c0.02,0,0.03,0.01,0.05,0.02
								C246.94,226.11,246.94,226.12,246.95,226.12z"/>
							<path class="st9" d="M253.88,211.69c0-0.4-0.06-0.76-0.13-1.06l0,0c1.64-0.46,2.86,0.58,2.86,2.64
								c0,2.46-1.72,5.44-3.85,6.67c-1.78,1.04-3.3,0.49-3.71-1.18c0.32-0.08,0.64-0.19,0.99-0.4
								C252.16,217.13,253.88,214.16,253.88,211.69z"/>
						</g>
					</g>
				</g>
				<g>
					<line class="st11" x1="249.99" y1="198.05" x2="245.96" y2="182.37"/>
					<line class="st11" x1="238.74" y1="204.59" x2="223.85" y2="192.82"/>
					<line class="st11" x1="235.63" y1="217.6" x2="218.22" y2="218.95"/>
				</g>
				<path class="st2" d="M456.84,193.36c-0.39-3.01-0.72-7.27-1.64-11c-2.33-9.42-7.39-21.62-9.06-24.82
					c-1.67-3.19-5.44-7.84-8.11-11.77c-3.78-5.55-6.43-8.67-9.31-12.43c-6.32-8.27-9.01-8.74-16.38-9.01
					c-1,2.63-3.28,13.41,4.11,22.12l15.85,16.7c0.9,1.45,10.58,17.99,12.19,24.11c0.29,1.08,0.13,2.23-0.38,3.23
					c-1.36,2.68-2.17,6.04-2.77,8.75c-0.47,2.12-1.73,3.8-1.3,4.13c0.55,0.42,1.91,0.94,3.51-0.28c0.77-0.59,1.95-2.53,2.73-4.11
					c1.33,0.01,2.19,0.78,2.29,2.18c0.09,1.23-0.47,2.95-0.89,5.08c-0.08,0.41-0.18,0.89-0.38,2.05c-0.13,0.63-0.26,1.47-0.27,2.38
					c2.02,0.37,4.08-0.85,7.44-4.04C457.49,203.76,457.69,199.9,456.84,193.36z"/>
			</g>
			<g id="XMLID_376_">
				<path class="st4" d="M404.44,118.73c0.05-1.97,6.56-6.68,9.85-11.66c3.05-4.61,7.31-17.32-2.79-21.38c0,0,2.17-6.1-1.78-9.68
					c-3.95-3.59-9.29-1.37-10.13,0.13c0,0-1.47-6.31-8.46-6.65c-6.98-0.34-8.28,6.18-8.28,6.18s-5.52-2.53-9.22,2.58
					c-3.7,5.11,1.21,9.79,1.21,9.79s-2.22,1.4-1.88,3.9c0.29,2.16,2.36,2.7,2.61,3.77c0.24,1.07-1.12,1.71-1.82,0.94
					c0,0,0.23,1.85,2.56,1.73c2.33-0.13,4.41-3.29,4.41-3.29L404.44,118.73z"/>
				<path id="XMLID_1104_" class="st2" d="M383.24,85.05c-2.99,1.3-5.83,5.86-5.78,18.65c0.04,10.83,3.36,13.57,5.04,14.38
					c1.68,0.8,4.95,0.4,8.14-0.09l-0.01,6.23c0,0-5.76,7.16-0.6,10.71c13.32-2.33,14.34-11.07,14.34-11.07l0.24-13.58
					c0,0,1.83,1.93,5.05-0.9c2.66-2.33,3.62-6.33,1.62-8.52c-2-2.19-4.56-2.37-6.88,0.08c0,0-4.25,0.27-10.64-3.74
					C387.22,93.1,384.99,89.13,383.24,85.05z"/>
				<g id="XMLID_459_">
					<path id="XMLID_465_" class="st12" d="M390.91,110.48c0.03,0.89-0.63,1.63-1.48,1.65c-0.85,0.03-1.57-0.67-1.6-1.55
						c-0.03-0.89,0.63-1.63,1.48-1.65C390.17,108.9,390.88,109.6,390.91,110.48z"/>
				</g>
				<g id="XMLID_463_">
					<path id="XMLID_464_" class="st4" d="M382.68,100.02c0.03,0.82-0.59,1.51-1.38,1.54c-0.79,0.03-1.46-0.62-1.49-1.45
						c-0.03-0.82,0.59-1.51,1.38-1.54C381.98,98.55,382.65,99.19,382.68,100.02z"/>
				</g>
				<g id="XMLID_460_">
					<path id="XMLID_461_" class="st4" d="M393.75,100.66c0.03,0.89-0.63,1.63-1.48,1.65s-1.57-0.67-1.6-1.55
						c-0.03-0.89,0.63-1.63,1.48-1.65C393,99.08,393.72,99.78,393.75,100.66z"/>
				</g>
				<path id="XMLID_458_" class="st4" d="M381.68,94.27l-3.05,1.78c0.44,0.9,1.56,1.14,2.4,0.65
					C381.87,96.22,382.12,95.17,381.68,94.27z"/>
				<path id="XMLID_457_" class="st4" d="M404.37,99.18l-0.04,6.02c-1.61,0.05-2.91-1.25-2.9-2.91
					C401.45,100.62,402.76,99.23,404.37,99.18z"/>
				<polygon id="XMLID_456_" class="st7" points="386.62,98.57 386.01,107.21 381.45,106.14 				"/>
				<path id="XMLID_449_" class="st7" d="M390.63,117.98c3.35-0.39,10.28-2.32,11.4-5.13c0,0-0.39,1.77-2.48,3.57
					c-2.09,1.79-8.92,3.66-8.92,3.66L390.63,117.98z"/>
			</g>
		</g>
		<g id="Question_Marks">
			<g>
				<path d="M430.9,51.18c1.28,0.48,2.47,1.13,3.55,1.95c1.08,0.81,1.96,1.75,2.64,2.8c0.68,1.05,1.11,2.2,1.3,3.44
					c0.19,1.24,0.03,2.53-0.47,3.87c-0.41,1.09-0.94,1.98-1.58,2.66c-0.65,0.68-1.36,1.24-2.13,1.68c-0.77,0.44-1.58,0.81-2.41,1.11
					c-0.83,0.3-1.62,0.58-2.35,0.84c-0.74,0.27-1.42,0.58-2.04,0.94c-0.62,0.36-1.08,0.83-1.39,1.4c-0.17,0.28-0.39,0.49-0.66,0.64
					c-0.27,0.15-0.56,0.16-0.86,0.05l-3.12-1.17c-0.3-0.11-0.53-0.32-0.68-0.63c-0.15-0.31-0.15-0.6-0.01-0.89
					c0.46-1.05,1.03-1.9,1.73-2.55c0.7-0.66,1.45-1.2,2.25-1.63c0.8-0.43,1.62-0.79,2.46-1.06c0.84-0.28,1.62-0.55,2.35-0.83
					c0.73-0.27,1.36-0.58,1.89-0.93c0.54-0.34,0.91-0.8,1.13-1.38c0.39-1.04,0.28-2.06-0.35-3.06c-0.62-1-1.66-1.77-3.11-2.32
					c-2.32-0.87-4.47-0.36-6.43,1.56c-0.25,0.25-0.48,0.42-0.68,0.51c-0.21,0.09-0.49,0.07-0.84-0.06l-3.32-1.25
					c-0.25-0.09-0.43-0.25-0.54-0.49c-0.12-0.23-0.12-0.48-0.02-0.76c0.39-0.95,1.05-1.81,1.98-2.6c0.93-0.79,2.03-1.4,3.27-1.86
					c1.25-0.45,2.6-0.7,4.07-0.74C428,50.38,429.46,50.64,430.9,51.18z M423.78,75.08c0.3,0.11,0.52,0.32,0.65,0.62
					c0.14,0.3,0.15,0.6,0.04,0.9l-1.36,3.61c-0.11,0.3-0.32,0.52-0.62,0.66c-0.3,0.14-0.6,0.15-0.9,0.04l-3.52-1.33
					c-0.3-0.11-0.52-0.32-0.66-0.62c-0.14-0.3-0.15-0.6-0.04-0.9l1.36-3.61c0.11-0.3,0.32-0.52,0.62-0.66
					c0.3-0.14,0.6-0.15,0.9-0.03L423.78,75.08z"/>
			</g>
			<g>
				<g>
					<path d="M432.63,94.28c0.22,0.21,0.33,0.47,0.34,0.78c0.01,0.31-0.09,0.58-0.3,0.8l-2.5,2.63c-0.21,0.22-0.47,0.33-0.78,0.34
						c-0.31,0.01-0.58-0.09-0.8-0.3l-2.57-2.45c-0.22-0.21-0.33-0.47-0.34-0.78c-0.01-0.31,0.09-0.58,0.3-0.8l2.5-2.63
						c0.21-0.22,0.47-0.33,0.78-0.34c0.31-0.01,0.58,0.09,0.8,0.3L432.63,94.28z M447.59,76.15c0.94,0.89,1.73,1.89,2.37,2.99
						c0.64,1.1,1.06,2.24,1.27,3.4c0.2,1.16,0.16,2.32-0.13,3.46c-0.29,1.15-0.9,2.21-1.83,3.19c-0.76,0.8-1.54,1.37-2.35,1.72
						c-0.81,0.35-1.63,0.58-2.46,0.68c-0.84,0.1-1.67,0.12-2.49,0.08c-0.83-0.05-1.61-0.09-2.35-0.13
						c-0.74-0.04-1.45-0.02-2.11,0.07c-0.67,0.08-1.24,0.32-1.72,0.7c-0.25,0.18-0.52,0.28-0.81,0.31
						c-0.29,0.03-0.55-0.06-0.77-0.27l-2.27-2.16c-0.22-0.21-0.34-0.47-0.36-0.79c-0.02-0.32,0.09-0.58,0.32-0.78
						c0.78-0.74,1.59-1.27,2.44-1.58c0.85-0.31,1.7-0.51,2.55-0.59c0.85-0.08,1.7-0.09,2.53-0.02c0.83,0.07,1.61,0.11,2.34,0.14
						c0.73,0.03,1.39-0.01,1.98-0.11c0.59-0.1,1.09-0.36,1.48-0.78c0.72-0.76,0.99-1.68,0.82-2.78c-0.17-1.1-0.79-2.15-1.84-3.15
						c-1.7-1.61-3.75-1.95-6.16-1.01c-0.31,0.12-0.57,0.19-0.78,0.2c-0.22,0-0.45-0.12-0.71-0.36l-2.42-2.3
						c-0.18-0.17-0.28-0.38-0.29-0.62c-0.02-0.24,0.07-0.46,0.26-0.66c0.68-0.68,1.58-1.19,2.68-1.53c1.1-0.34,2.27-0.48,3.52-0.41
						c1.25,0.07,2.51,0.35,3.8,0.85C445.36,74.39,446.54,75.14,447.59,76.15z"/>
				</g>
				<g class="st13">
					<path d="M432.63,94.28c0.22,0.21,0.33,0.47,0.34,0.78c0.01,0.31-0.09,0.58-0.3,0.8l-2.5,2.63c-0.21,0.22-0.47,0.33-0.78,0.34
						c-0.31,0.01-0.58-0.09-0.8-0.3l-2.57-2.45c-0.22-0.21-0.33-0.47-0.34-0.78c-0.01-0.31,0.09-0.58,0.3-0.8l2.5-2.63
						c0.21-0.22,0.47-0.33,0.78-0.34c0.31-0.01,0.58,0.09,0.8,0.3L432.63,94.28z M447.59,76.15c0.94,0.89,1.73,1.89,2.37,2.99
						c0.64,1.1,1.06,2.24,1.27,3.4c0.2,1.16,0.16,2.32-0.13,3.46c-0.29,1.15-0.9,2.21-1.83,3.19c-0.76,0.8-1.54,1.37-2.35,1.72
						c-0.81,0.35-1.63,0.58-2.46,0.68c-0.84,0.1-1.67,0.12-2.49,0.08c-0.83-0.05-1.61-0.09-2.35-0.13
						c-0.74-0.04-1.45-0.02-2.11,0.07c-0.67,0.08-1.24,0.32-1.72,0.7c-0.25,0.18-0.52,0.28-0.81,0.31
						c-0.29,0.03-0.55-0.06-0.77-0.27l-2.27-2.16c-0.22-0.21-0.34-0.47-0.36-0.79c-0.02-0.32,0.09-0.58,0.32-0.78
						c0.78-0.74,1.59-1.27,2.44-1.58c0.85-0.31,1.7-0.51,2.55-0.59c0.85-0.08,1.7-0.09,2.53-0.02c0.83,0.07,1.61,0.11,2.34,0.14
						c0.73,0.03,1.39-0.01,1.98-0.11c0.59-0.1,1.09-0.36,1.48-0.78c0.72-0.76,0.99-1.68,0.82-2.78c-0.17-1.1-0.79-2.15-1.84-3.15
						c-1.7-1.61-3.75-1.95-6.16-1.01c-0.31,0.12-0.57,0.19-0.78,0.2c-0.22,0-0.45-0.12-0.71-0.36l-2.42-2.3
						c-0.18-0.17-0.28-0.38-0.29-0.62c-0.02-0.24,0.07-0.46,0.26-0.66c0.68-0.68,1.58-1.19,2.68-1.53c1.1-0.34,2.27-0.48,3.52-0.41
						c1.25,0.07,2.51,0.35,3.8,0.85C445.36,74.39,446.54,75.14,447.59,76.15z"/>
				</g>
			</g>
		</g>
	</g>
</g>
<g id="Character_1">
	<g id="Character_6_">
		<g id="Bottom_1_">
			<g>
				<path id="XMLID_542_" class="st2" d="M76.81,345.71c3.17,1.93,7.38,2.01,11.35,0.61l3.05-20.97l-14.05-3.59L76.81,345.71z"/>
				<g>
					<path id="XMLID_535_" class="st4" d="M99.4,365.81c0.34,0.36,0.13,2.98-0.3,3.59c-0.46,0.64-2.84,2.59-7.27,2.67
						c-4.23,0.08-7.97-0.7-10.36-2.4c-2.39-1.71-3.5-3.5-3.6-5.92c-0.1-2.42,0.29-4.72-0.76-6.63c-0.97-1.76-2.29-3.5-2.61-4.45
						c-0.69-2.06-0.02-5.17-0.02-5.17L99.4,365.81z"/>
					<path id="XMLID_534_" class="st6" d="M89.13,345.44c0.02,0.9,0.13,1.79,0.37,2.7c0.51,1.9,1.35,3.7,2.3,5.42
						c0.49,0.89,1.01,1.76,1.63,2.58c1.19,1.59,2.71,2.92,3.98,4.45c1.27,1.53,2.32,3.36,2.33,5.32c0,3.32-3.65,4.25-6.44,4.59
						c-2.98,0.37-6.12,0.04-8.96-0.93c-3.16-1.08-5.34-3.69-5.7-6.92c-0.1-0.93,0-1.86-0.06-2.79c-0.13-2.12-1.12-4.11-2.26-5.93
						c-0.66-1.06-1.39-2.09-1.8-3.26c-0.75-2.09,0.06-4.36,0.72-6.37c0.57-1.74,1.03-3.83,1.64-3.63c-0.02,0.36-0.02,1.13-0.02,1.13
						c0.18,0.39,0.62,0.68,0.73,1.13c0.11,0.47,0.24,0.94,0.43,1.39c0.29,0.68,0.75,1.32,1.38,1.7c0.11-1.25,0.22-2.49,0.33-3.74
						c0.03-0.39,0.08-0.8,0.35-1.08c0.27-0.29,0.69-0.35,1.08-0.4c2.36-0.31,4.76-0.62,7.11-0.21c0.35,0.06,0.74,0.16,0.93,0.47
						c0.16,0.25,0.14,0.56,0.11,0.85C89.21,343.11,89.1,344.27,89.13,345.44z"/>
					<path id="XMLID_531_" class="st9" d="M89.13,345.44c0.02,0.9,0.13,1.79,0.37,2.7c0.51,1.9,1.35,3.7,2.3,5.42
						c0.49,0.89,1.01,1.76,1.63,2.58c1.19,1.59,2.71,2.92,3.98,4.45c1.27,1.53,2.32,3.36,2.33,5.32c0,3.32-3.65,4.25-6.44,4.59
						c-2.98,0.37-6.12,0.04-8.96-0.93c-3.16-1.08-5.34-3.69-5.7-6.92c-0.1-0.93,0-1.86-0.06-2.79c-0.13-2.12-1.12-4.11-2.26-5.93
						c-0.66-1.06-1.39-2.09-1.8-3.26c-0.75-2.09,0.06-4.36,0.72-6.37c0.57-1.74,1.03-3.83,1.64-3.63c-0.02,0.36-0.02,1.13-0.02,1.13
						c0.18,0.39,0.62,0.68,0.73,1.13c0.11,0.47,0.24,0.94,0.43,1.39c0.29,0.68,0.75,1.32,1.38,1.7c0.11-1.25,0.22-2.49,0.33-3.74
						c0.03-0.39,0.08-0.8,0.35-1.08c0.27-0.29,0.69-0.35,1.08-0.4c2.36-0.31,4.76-0.62,7.11-0.21c0.35,0.06,0.74,0.16,0.93,0.47
						c0.16,0.25,0.14,0.56,0.11,0.85C89.21,343.11,89.1,344.27,89.13,345.44z"/>
					<path id="XMLID_525_" class="st5" d="M92.21,354.28c-1.18-0.99-3.94-1.15-5.46-1.07c-1.9,0.1-3.47,0.68-4.37,1.27
						c-0.4,0.26-0.94,0.19-1.26-0.17l0,0c-0.39-0.42-0.31-1.08,0.17-1.4c0.96-0.63,2.68-1.49,4.92-1.53
						c3.73-0.06,4.78,0.63,4.78,0.63S92.64,353.2,92.21,354.28z"/>
					<path id="XMLID_522_" class="st5" d="M94.86,357.82c-1.5-1-4.54-1.03-6.06-0.95c-1.9,0.1-3.35,0.77-4.26,1.36
						c-0.4,0.26-0.94,0.18-1.26-0.17l0,0c-0.39-0.42-0.31-1.08,0.17-1.4c0.96-0.63,2.79-1.63,5.04-1.67
						c3.73-0.06,4.65,0.75,4.65,0.75S94.68,356.44,94.86,357.82z"/>
					<path id="XMLID_513_" class="st5" d="M84.93,347.75c2.58-0.13,3.65,0.22,4.65,0.64c0.63,0.4,1.01,1.46,0.57,1.7
						c-0.8-0.5-2.28-0.77-4.11-0.79c-1.23-0.01-2.79,0.4-4.08,0.89c-0.33,0.12-0.71,0.3-1.05,0.47c-0.46,0.22-1.01,0.02-1.2-0.45
						l0,0c-0.16-0.39,0-0.84,0.38-1.04C81.02,348.67,82.85,347.85,84.93,347.75z"/>
				</g>
			</g>
			<g>
				<path id="XMLID_538_" class="st2" d="M116.27,337.82c2.44,6.11,6.26,4.23,12.08,0.71l0.88-20.86l-14.81-1.37L116.27,337.82z"/>
				<g>
					<path id="XMLID_492_" class="st4" d="M150.69,352.53c0.31,0.74,0.13,2.1-0.32,2.94c-0.46,0.84-5.09,3.13-11.14,2.4
						c-6.05-0.74-10.08-3.41-12.32-5.06c-2.23-1.66-4.63-2.07-7.62-2.41c-3-0.33-5.25-1.38-5.84-2.82
						c-0.58-1.44,0.31-3.82,0.31-3.82L150.69,352.53z"/>
					<path id="XMLID_489_" class="st6" d="M127.13,333.3c0.56-0.1,1.02-0.27,1.61-0.45c0.29-0.09,0.62-0.18,0.9-0.06
						c0.38,0.17,0.51,0.63,0.59,1.04c0.17,0.83,0.2,1.9,0.52,2.67c0.29,0.7,1.07,1.37,1.61,1.88c1.41,1.32,3.04,2.39,4.69,3.39
						c1.93,1.17,3.82,2.1,5.82,3.13c2.04,1.05,4.78,1.77,6.35,2.96c2.3,1.73,2.39,5.78-0.41,7.23c-2.41,1.25-8.65,2.41-15.02,0.23
						c-3.47-1.19-7.17-5.16-11.77-5.77c-2.93-0.39-6.83-0.85-8.6-3.18c-0.65-1.03-0.08-3.89,0.44-7.29c0.47-3.04,0.9-7.79,1.86-7.48
						c0,0,0.08,0.92,0.08,0.92s0.88,1.06,1.17,1.41c0.25,0.31,0.54,0.5,0.82,0.78c0.36,0.35,0.64,0.75,1.04,1.07
						c0.48,0.39,1.07,0.68,1.69,0.71c0.29,0.01,0.6-0.04,0.85-0.18c0.5-0.29,0.56-0.94,0.97-1.35c0.46-0.46,1.03-0.82,1.63-1.06
						c0.85-0.33,1.75-0.47,2.65-0.54C126.81,333.35,126.98,333.33,127.13,333.3z"/>
					<path id="XMLID_488_" class="st9" d="M127.13,333.3c0.56-0.1,1.02-0.27,1.61-0.45c0.29-0.09,0.62-0.18,0.9-0.06
						c0.38,0.17,0.51,0.63,0.59,1.04c0.17,0.83,0.2,1.9,0.52,2.67c0.29,0.7,1.07,1.37,1.61,1.88c1.41,1.32,3.04,2.39,4.69,3.39
						c1.93,1.17,3.82,2.1,5.82,3.13c2.04,1.05,4.78,1.77,6.35,2.96c2.3,1.73,2.39,5.78-0.41,7.23c-2.41,1.25-8.65,2.41-15.02,0.23
						c-3.47-1.19-7.17-5.16-11.77-5.77c-2.93-0.39-6.83-0.85-8.6-3.18c-0.65-1.03-0.08-3.89,0.44-7.29c0.47-3.04,0.9-7.79,1.86-7.48
						c0,0,0.08,0.92,0.08,0.92s0.88,1.06,1.17,1.41c0.25,0.31,0.54,0.5,0.82,0.78c0.36,0.35,0.64,0.75,1.04,1.07
						c0.48,0.39,1.07,0.68,1.69,0.71c0.29,0.01,0.6-0.04,0.85-0.18c0.5-0.29,0.56-0.94,0.97-1.35c0.46-0.46,1.03-0.82,1.63-1.06
						c0.85-0.33,1.75-0.47,2.65-0.54C126.81,333.35,126.98,333.33,127.13,333.3z"/>
					<path id="XMLID_479_" class="st5" d="M134.4,340.03c0,0-0.36-1.15-2.09-1.57c-1.32-0.32-3.74,0.54-5.27,1.67
						c-0.63,0.46-0.6,1.41,0.06,1.82l0,0c0.39,0.25,0.89,0.21,1.26-0.07C129.36,341.09,131.6,339.68,134.4,340.03z"/>
					<path id="XMLID_477_" class="st5" d="M138.41,342.57c0,0-0.79-1.4-2.5-1.46c0,0-3.5-0.09-5.76,1.81
						c-0.58,0.48-0.59,1.36,0.05,1.76l0,0c0.38,0.24,0.86,0.21,1.21-0.08C132.44,343.79,134.49,342.06,138.41,342.57z"/>
					<path id="XMLID_476_" class="st5" d="M142.87,344.91c0,0-0.9-1.27-2.6-1.34c0,0-3.26-0.05-5.53,1.84
						c-0.58,0.48-0.59,1.36,0.05,1.76l0,0c0.38,0.24,0.86,0.21,1.21-0.07C137.03,346.28,138.95,344.4,142.87,344.91z"/>
				</g>
			</g>
			<g id="XMLID_466_">
				<path class="st5" d="M76.42,289.41c0.45-10.07,2.59-15.31,2.9-18.1c0,0,0.82-55.39,2.17-72.21l49.6-2.11
					c0.73,17.96,1.39,66.36,1.01,72.76c-0.37,6.13-2.86,59.3-2.86,59.3c-7.01,2.18-14.47-0.96-14.47-0.96s-4.16-30.24-4.84-36.91
					c-0.88-8.63,0.47-18.01,0.47-18.01l-3.17-43.07c0,0-3.83,33.39-5.73,45.97c-2.17,14.41-11.46,59.08-11.46,59.08
					c-6.69,1.67-13.21-1.22-13.21-1.22S75.76,304.01,76.42,289.41z"/>
				<path id="XMLID_469_" class="st3" d="M107.21,230.1l0.94-5.93c2.89-0.43,10.21-5,14.54-8.99c0,0-3.92,6.64-12.16,11.21
					l-0.15,46.79L107.21,230.1z"/>
			</g>
		</g>
		<g id="Top_1_">
			<g>
				<path class="st2" d="M127.55,167.81c-3.37-7.69-9.17-20.64-9.17-20.64l-1.47-21.05c0,0,3.29,0.08,6.41,0.57
					c3.13,0.49,8.07,3.47,10.34,9.09c1.68,4.17,10.47,29.61,10.47,29.61l15.3-8.07c3.92-2.49,5.3-6.62,7.81-8.96
					c2.5-2.34,5.03-2.74,7.77-4.65c2.74-1.91,3.87-3.44,4.56-1.53c0.7,1.91-2.4,4.84-2.96,5.57c-0.56,0.73-3.61,2.29,0.23,2.49
					c3.85,0.2,11.61-3.54,13.47-4.18c1.86-0.64,1.69,1.57,0.73,2.93c-0.97,1.37-1.07,5.39-2.69,7.65c-1.72,2.4-2.65,3.43-6.34,4.85
					c-3.43,1.33-10.54,1.66-14.2,3.78c-3.66,2.11-12.52,10.12-18.43,14.23c-7.93,5.52-12.39,5.88-15.5,1.48
					C130.77,176.59,128.74,170.52,127.55,167.81z"/>
				<path class="st14" d="M114.84,125.72c5.19-0.4,11.32-0.08,14.72,3.02c2.7,2.47,3.72,4.05,6.74,12.53
					c2.04,5.73,6.28,18.93,6.28,18.93s-9,1.6-15.05,9.2l-9.75-21.91L114.84,125.72z"/>
				<path class="st7" d="M144.12,165.39c-3.39,1.21-5.65,3.59-6.47,4.96c0,0,0.36-4.02,5.97-6.39L144.12,165.39z"/>
			</g>
			<g id="XMLID_744_">
				<path id="XMLID_746_" class="st0" d="M102.39,124.78c0,0-3.34-0.25-7.31,0.8c-4.57,1.21-12.76,3.51-12.76,3.51
					c-2.6,1.35-3.62,5.86-4.2,8.44c-1.88,8.28,3.04,27.04,3.76,34.29c0.71,7.26-0.84,29.62-0.84,29.62
					c5.59,6.47,35.88,10.77,50.63,0c0,0,0.64-51.27-0.81-58.63c-2.2-11.13-5.46-16.42-16.97-17.09L102.39,124.78z"/>
			</g>
			<g id="XMLID_546_">
				<g>
					<g id="XMLID_723_">
						<path id="XMLID_741_" class="st4" d="M108.86,97.28l-3.29,1.82c-0.49-0.95-0.14-2.12,0.77-2.62
							C107.25,95.97,108.38,96.33,108.86,97.28z"/>
						<path id="XMLID_732_" class="st4" d="M123.17,98.6l-3-2.31c0.61-0.86,1.78-1.04,2.61-0.4
							C123.6,96.53,123.78,97.74,123.17,98.6z"/>
					</g>
					<g id="XMLID_552_">
						<g id="XMLID_704_">
							<path class="st4" d="M93.74,86.81c0,0-3.54,0.49-4.84,3.16c-1.13,2.32-0.72,7.92,0.78,14.02c1.5,6.1,2.92,9.78,3.81,11.47
								c0.88,1.69,2.7,2.16,2.7,2.16l-0.18-7.24l-0.26-5.05c0,0,3.24-4.42,3.59-8.05c0.46-4.66-0.52-6.57-0.52-6.57L93.74,86.81z"/>
							<path id="XMLID_720_" class="st4" d="M99.45,93.81c0.02,7.47,6.1,13.5,13.56,13.48c7.47-0.02,13.06-6.15,13.04-13.62
								c-0.02-7.47-5.66-13.45-13.13-13.42C105.46,80.27,99.43,86.34,99.45,93.81z"/>
							<path id="XMLID_715_" class="st2" d="M95.95,104.52c-1.22,1.06-2.21-1.68-3.23-2.74c-1.02-1.06-4.36-2.51-6.01,0.99
								c-1.68,3.57,1.46,8.6,4.02,9.59c2.78,1.07,4.36-1.34,4.36-1.34v16.05c3.85,6.93,10.64,6.72,14.26,6.33
								c3.63-0.39,4.42-4.16,1.77-7.2l-0.03-4.96c0,0,4.1,0.61,6.09,0.29c3.32-0.52,5.06-3.03,6.06-6.63
								c1.6-5.78,2.24-15.51,0.02-26.74c-3.72-2.88-16.63-2.4-24.44,2.55C99.4,100.67,97.16,103.47,95.95,104.52z"/>
							<path class="st4" d="M123.88,82.49c0.5-2.08,0.73-4.23,0.67-6.37c-0.02-0.85-0.21-1.87-0.99-2.18
								c-0.76-0.3-1.57,0.26-2.25,0.72c-2.88,1.94-6.46,2.49-9.93,2.68c-5.98,0.33-15.17-0.06-18.22,6.51
								c-0.85,1.82-0.99,3.74,0.68,5c1.43,1.07,3.25,1.56,4.99,1.86c3.03,0.53,6.04,1.19,9.09,1.6c3.11,0.41,6.73,0.82,9.79-0.13
								c2.57-0.79,5.17-1.47,7.09-3.51c1.64-1.75,2.6-4.14,2.62-6.54c0-0.34-0.08-0.77-0.41-0.85c-0.17-0.04-0.34,0.03-0.5,0.1
								C125.63,81.74,124.75,82.12,123.88,82.49z"/>
							<path id="XMLID_710_" class="st7" d="M111.09,121.24c0,0-7.43-1.47-10.02-2.84c-1.74-0.92-3.17-2.51-3.6-3.54
								c0,0,0.49,2.2,2.05,4.18c1.9,2.42,11.58,4.17,11.58,4.17L111.09,121.24z"/>
						</g>
						<g id="XMLID_561_">
							<path id="XMLID_694_" class="st4" d="M109.6,102.19c0,0.96-0.74,1.73-1.66,1.73c-0.92,0-1.67-0.77-1.67-1.73
								c0-0.96,0.74-1.73,1.66-1.73C108.85,100.46,109.6,101.24,109.6,102.19z"/>
							<path id="XMLID_654_" class="st12" d="M112,113.74c0,0.9-0.7,1.63-1.56,1.63c-0.87,0-1.57-0.73-1.57-1.63
								c0-0.9,0.7-1.63,1.56-1.63C111.29,112.12,111.99,112.84,112,113.74z"/>
							<path id="XMLID_647_" class="st4" d="M107.5,96.94l-3.44,2.17c-0.58-0.99-0.29-2.28,0.66-2.88
								C105.67,95.63,106.92,95.95,107.5,96.94z"/>
							<path id="XMLID_623_" class="st4" d="M119.64,94.82l3.62,1.62c-0.41,1.02-1.56,1.49-2.56,1.05
								C119.71,97.04,119.23,95.84,119.64,94.82z"/>
							<path id="XMLID_603_" class="st4" d="M121.55,101.69c0,0.92-0.72,1.67-1.6,1.67c-0.89,0-1.61-0.75-1.61-1.67
								c0-0.92,0.72-1.67,1.6-1.67C120.82,100.02,121.55,100.77,121.55,101.69z"/>
							<polygon id="XMLID_578_" class="st7" points="113.37,98.87 113.96,109.99 119.24,108.59 							"/>
						</g>
					</g>
				</g>
			</g>
			<g>
				<path class="st2" d="M19.97,144.67c1.73,0.93,8.78,5.89,12.61,6.32c1.62,0.18,2.06-0.08,2-0.5c-0.09-0.58-1.11-1.45-1.36-1.92
					c-0.43-0.81-3.01-4.21-2.01-5.98c1-1.77,1.87-0.07,4.25,2.26c2.39,2.33,4.82,3.13,6.91,5.85c2.09,2.72,2.79,7.01,6.24,10.11
					l13.79,9.4c0,0,6.42-29.79,9.24-33.3c2.96-3.69,15.88,4.35,13.18,16.08c-2.7,11.73-8.83,32.07-13.09,36.07
					c-2.75,2.59-8.57,0.14-15.82-6.31c-5.73-5.09-13.58-12.77-16.85-15.46c-3.27-2.68-10.23-4.17-13.4-6.04
					c-3.41-2.01-4.15-3.17-5.46-5.82c-1.23-2.49-0.68-6.48-1.41-7.99C18.04,145.94,18.24,143.74,19.97,144.67z"/>
				<path class="st14" d="M82.32,129.09c4.41,2.77,4.64,6.79,4.86,11.38c0.2,4.23-0.65,10.07-2.52,15.84
					c-1.87,5.79-4.85,16.36-4.85,16.36s-11.54,0.27-17.48-4.86c0,0,2.71-11.39,4.62-19.96C68.87,139.28,71.19,130.06,82.32,129.09z"
					/>
				<path class="st7" d="M62.39,170.21c3.15,1.75,4.99,5.51,5.57,7c0,0-0.1-5.28-5.25-8.53L62.39,170.21z"/>
			</g>
		</g>
		<g id="Outlet">
			<polygon class="st6" points="182.11,386.34 259.29,430.9 259.29,447.32 182.11,402.76 			"/>
			<polygon class="st15" points="182.11,386.34 259.29,430.9 259.29,447.32 182.11,402.76 			"/>
			<polygon class="st6" points="336.47,386.34 259.29,430.9 259.29,447.32 336.47,402.76 			"/>
			<polygon class="st9" points="336.47,386.34 259.29,430.9 259.29,447.32 336.47,402.76 			"/>
			<polygon class="st6" points="336.47,386.34 259.29,341.78 182.11,386.34 259.29,430.9 			"/>
			<polygon class="st8" points="336.47,386.34 259.29,341.78 182.11,386.34 259.29,430.9 			"/>
			<polygon class="st16" points="259.29,430.9 259.29,426.21 190.23,386.34 182.11,386.34 			"/>
			<polygon class="st16" points="259.29,341.78 259.29,346.48 328.34,386.34 336.47,386.34 			"/>
			<polygon class="st6" points="336.47,386.34 328.34,386.34 259.29,426.21 259.29,430.9 			"/>
			<polygon class="st6" points="259.29,341.78 259.29,346.48 190.23,386.34 182.11,386.34 			"/>
			<path class="st3" d="M259.57,367.04l33.16,19.15c2.48,1.43,2.48,3.76,0,5.19L268,405.65c-2.48,1.43-6.5,1.43-8.99,0l-33.16-19.15
				c-2.48-1.43-2.48-3.76,0-5.19l24.73-14.28C253.06,365.6,257.09,365.6,259.57,367.04z"/>
			<path class="st5" d="M268,405.65l23.92-13.81l-32.35-18.68c-2.48-1.43-6.51-1.43-8.99,0l-23.92,13.81l32.35,18.68
				C261.49,407.09,265.52,407.09,268,405.65z"/>
			<g>
				<path class="st4" d="M239.54,386.37l14.51-8.38c0.48-0.28,1.25-0.28,1.73,0l1.79,1.02c0.48,0.27,0.48,0.72,0,1l-14.51,8.38
					c-0.48,0.28-1.25,0.28-1.73,0l-1.79-1.03C239.07,387.1,239.07,386.65,239.54,386.37z"/>
				<path class="st4" d="M261.21,398.9l14.51-8.38c0.48-0.28,1.25-0.28,1.73,0l1.79,1.02c0.48,0.27,0.48,0.72,0,1l-14.51,8.38
					c-0.48,0.28-1.25,0.28-1.73,0l-1.79-1.03C260.74,399.63,260.74,399.18,261.21,398.9z"/>
			</g>
			<g>
				<path class="st6" d="M225.76,418.77c0-2.79-1.96-6.18-4.37-7.57c-1.21-0.7-2.3-0.76-3.09-0.3c-0.16,0.09-1.73,1.04-1.89,1.13
					c-0.79,0.46-1.28,1.43-1.28,2.82c0,2.79,1.96,6.18,4.37,7.57c1.21,0.7,2.3,0.76,3.09,0.3c0.16-0.09,1.72-1.03,1.88-1.13
					C225.26,421.14,225.76,420.17,225.76,418.77z"/>
				<path class="st16" d="M219.49,412.33c2.41,1.39,4.37,4.78,4.37,7.57c0,2.79-1.96,3.92-4.37,2.52c-2.41-1.39-4.37-4.79-4.37-7.57
					S217.08,410.94,219.49,412.33z"/>
			</g>
		</g>
		<g id="Cable">
			<path class="st3" d="M168.76,444.27c-5.04,0-10.07-1.13-14-3.4l-51.2-29.56c-4.12-2.38-6.38-5.66-6.38-9.23
				c0-3.58,2.27-6.86,6.38-9.23l59.32-34.25c6.5-3.75,11.99-13.26,11.99-20.77V150.1c0-1.1,0.9-2,2-2c1.1,0,2,0.9,2,2v187.73
				c0,9.06-6.15,19.7-13.99,24.23l-59.32,34.25c-2.83,1.63-4.38,3.68-4.38,5.77c0,2.09,1.56,4.14,4.38,5.77l51.2,29.56
				c6.61,3.82,17.37,3.82,23.98,0l37.75-21.78c0.96-0.55,2.18-0.22,2.73,0.73c0.55,0.96,0.22,2.18-0.73,2.73l-37.75,21.78
				C178.82,443.14,173.79,444.27,168.76,444.27z"/>
		</g>
		<g id="Exclamation_Marks">
			<g>
				<path d="M78.92,78.31c-0.05-0.28,0-0.55,0.17-0.79c0.17-0.25,0.39-0.4,0.67-0.45l4.87-0.94c0.28-0.05,0.55,0,0.79,0.17
					c0.25,0.17,0.4,0.39,0.45,0.68l0.75,3.9c0.05,0.28,0,0.55-0.17,0.79c-0.16,0.25-0.39,0.4-0.67,0.45l-4.87,0.94
					c-0.28,0.05-0.55,0-0.79-0.17c-0.25-0.17-0.4-0.39-0.45-0.67L78.92,78.31z M74.86,57.25c-0.05-0.28,0-0.55,0.17-0.79
					c0.17-0.25,0.39-0.4,0.67-0.45l4.87-0.94c0.28-0.05,0.55,0,0.79,0.17c0.25,0.17,0.4,0.39,0.45,0.67l3.21,16.65
					c0.05,0.28,0,0.55-0.17,0.79c-0.17,0.25-0.39,0.4-0.67,0.45l-4.87,0.94c-0.28,0.05-0.55,0-0.79-0.17
					c-0.25-0.17-0.4-0.39-0.45-0.67L74.86,57.25z"/>
			</g>
			<g>
				<path d="M70.8,94.63c-0.19-0.21-0.28-0.47-0.27-0.77c0.02-0.3,0.13-0.54,0.35-0.73l3.69-3.31c0.22-0.19,0.47-0.28,0.77-0.26
					c0.3,0.02,0.54,0.13,0.73,0.35l2.65,2.96c0.19,0.22,0.28,0.47,0.26,0.77c-0.02,0.3-0.13,0.54-0.35,0.73l-3.69,3.31
					c-0.21,0.19-0.47,0.28-0.77,0.26c-0.3-0.01-0.54-0.13-0.73-0.35L70.8,94.63z M56.49,78.66c-0.19-0.21-0.28-0.47-0.26-0.77
					c0.02-0.3,0.13-0.54,0.35-0.73l3.69-3.31c0.22-0.19,0.47-0.28,0.77-0.26c0.3,0.01,0.54,0.13,0.73,0.35l11.31,12.63
					c0.19,0.21,0.28,0.47,0.26,0.77c-0.02,0.3-0.13,0.54-0.35,0.73l-3.69,3.31c-0.21,0.19-0.47,0.28-0.77,0.26
					c-0.3-0.02-0.54-0.13-0.73-0.35L56.49,78.66z"/>
			</g>
			<g class="st13">
				<path d="M70.8,94.63c-0.19-0.21-0.28-0.47-0.27-0.77c0.02-0.3,0.13-0.54,0.35-0.73l3.69-3.31c0.22-0.19,0.47-0.28,0.77-0.26
					c0.3,0.02,0.54,0.13,0.73,0.35l2.65,2.96c0.19,0.22,0.28,0.47,0.26,0.77c-0.02,0.3-0.13,0.54-0.35,0.73l-3.69,3.31
					c-0.21,0.19-0.47,0.28-0.77,0.26c-0.3-0.01-0.54-0.13-0.73-0.35L70.8,94.63z M56.49,78.66c-0.19-0.21-0.28-0.47-0.26-0.77
					c0.02-0.3,0.13-0.54,0.35-0.73l3.69-3.31c0.22-0.19,0.47-0.28,0.77-0.26c0.3,0.01,0.54,0.13,0.73,0.35l11.31,12.63
					c0.19,0.21,0.28,0.47,0.26,0.77c-0.02,0.3-0.13,0.54-0.35,0.73l-3.69,3.31c-0.21,0.19-0.47,0.28-0.77,0.26
					c-0.3-0.02-0.54-0.13-0.73-0.35L56.49,78.66z"/>
			</g>
		</g>
	</g>
</g>
<g id="_x34_04_Error">
	<g id="Text">
		<g>
			<path class="st5" d="M166.04,48.03c2.04,0,3.63,0.48,4.77,1.45c1.13,0.96,1.7,2.38,1.7,4.23c0,1.86-0.57,3.28-1.7,4.26
				c-1.13,0.98-2.72,1.47-4.77,1.47h-4.06v5.65c0,0.19-0.07,0.35-0.2,0.48c-0.13,0.14-0.3,0.2-0.48,0.2h-2.05
				c-0.19,0-0.35-0.07-0.48-0.2c-0.14-0.14-0.2-0.3-0.2-0.48V48.71c0-0.19,0.07-0.35,0.2-0.48c0.13-0.14,0.29-0.2,0.48-0.2H166.04z
				 M161.98,56.27h3.93c0.96,0,1.73-0.19,2.31-0.57c0.57-0.38,0.86-1.04,0.86-1.99c0-0.95-0.29-1.6-0.86-1.96
				c-0.58-0.36-1.34-0.55-2.31-0.55h-3.93V56.27z"/>
			<path class="st5" d="M174.76,55.84c0.07-0.36,0.22-0.74,0.47-1.14c0.24-0.41,0.59-0.79,1.04-1.14c0.45-0.35,1-0.65,1.65-0.87
				c0.65-0.23,1.41-0.34,2.27-0.34c0.86,0,1.64,0.11,2.33,0.34c0.69,0.23,1.29,0.56,1.79,1c0.5,0.44,0.88,0.99,1.15,1.66
				c0.27,0.67,0.41,1.43,0.41,2.29v7.45c0,0.19-0.07,0.35-0.2,0.48c-0.13,0.14-0.3,0.2-0.48,0.2h-1.93c-0.19,0-0.35-0.07-0.48-0.2
				c-0.14-0.14-0.2-0.3-0.2-0.48v-0.84c-0.36,0.49-0.87,0.91-1.53,1.26c-0.67,0.35-1.52,0.52-2.55,0.52c-0.73,0-1.38-0.1-1.95-0.29
				c-0.58-0.19-1.06-0.47-1.45-0.82c-0.39-0.35-0.69-0.77-0.9-1.26c-0.21-0.48-0.32-1.01-0.32-1.58c0-1.17,0.41-2.08,1.24-2.74
				c0.83-0.66,1.94-1.11,3.32-1.34l4.13-0.71c0-0.69-0.23-1.18-0.68-1.47c-0.46-0.29-1.02-0.43-1.7-0.43
				c-0.42,0-0.75,0.06-0.99,0.18c-0.24,0.12-0.46,0.28-0.68,0.48c-0.15,0.14-0.29,0.23-0.42,0.28c-0.13,0.05-0.27,0.08-0.42,0.08
				h-2.36c-0.17,0-0.31-0.05-0.43-0.15C174.77,56.14,174.73,56.01,174.76,55.84z M179,62.99c0.57,0,1.09-0.08,1.53-0.24
				c0.45-0.16,0.82-0.38,1.13-0.65c0.3-0.27,0.53-0.57,0.68-0.91c0.15-0.34,0.23-0.68,0.23-1.04V59.9l-3.45,0.61
				c-0.69,0.12-1.19,0.29-1.5,0.52c-0.3,0.23-0.46,0.54-0.46,0.93c0,0.35,0.18,0.62,0.54,0.79C178.08,62.9,178.51,62.99,179,62.99z"
				/>
			<path class="st5" d="M195,68.31c0.35,0,0.72-0.06,1.09-0.17c0.37-0.11,0.71-0.28,1.01-0.52c0.3-0.24,0.55-0.54,0.75-0.9
				c0.19-0.36,0.29-0.79,0.29-1.28v-0.94c-0.13,0.15-0.31,0.32-0.53,0.49c-0.22,0.18-0.49,0.34-0.8,0.49
				c-0.31,0.15-0.68,0.28-1.09,0.38c-0.41,0.1-0.88,0.15-1.41,0.15c-0.85,0-1.61-0.16-2.29-0.49c-0.68-0.33-1.27-0.77-1.75-1.32
				c-0.48-0.55-0.86-1.18-1.14-1.9c-0.28-0.72-0.44-1.47-0.47-2.24c-0.02-0.25-0.03-0.55-0.03-0.89c0-0.34,0.01-0.63,0.03-0.89
				c0.03-0.78,0.19-1.53,0.47-2.24c0.28-0.72,0.66-1.35,1.14-1.9c0.48-0.55,1.06-0.99,1.75-1.32c0.68-0.33,1.45-0.49,2.29-0.49
				c0.52,0,0.99,0.05,1.41,0.15c0.41,0.1,0.78,0.23,1.09,0.38c0.31,0.15,0.58,0.32,0.8,0.49c0.22,0.18,0.4,0.34,0.53,0.49v-0.58
				c0-0.19,0.07-0.35,0.2-0.48c0.13-0.13,0.3-0.2,0.48-0.2h1.93c0.19,0,0.35,0.07,0.48,0.2c0.13,0.14,0.2,0.3,0.2,0.48v11.89
				c0,2.04-0.57,3.59-1.71,4.63c-1.14,1.04-2.72,1.56-4.73,1.56c-0.86,0-1.66-0.11-2.4-0.34c-0.73-0.23-1.37-0.53-1.91-0.91
				c-0.54-0.38-0.97-0.81-1.29-1.29c-0.32-0.48-0.5-0.98-0.53-1.48c-0.02-0.19,0.05-0.35,0.19-0.48c0.14-0.14,0.31-0.2,0.49-0.2
				h1.72c0.24,0,0.44,0.08,0.61,0.24c0.17,0.16,0.31,0.31,0.43,0.44c0.22,0.29,0.52,0.52,0.9,0.71
				C193.59,68.22,194.18,68.31,195,68.31z M191.95,58.48c-0.05,0.47-0.05,0.95,0,1.42c0.1,1.1,0.44,1.89,1.01,2.37
				c0.57,0.48,1.28,0.72,2.1,0.72c0.83,0,1.53-0.24,2.09-0.74c0.57-0.49,0.89-1.19,0.98-2.1c0.03-0.25,0.05-0.57,0.05-0.96
				c0-0.39-0.02-0.71-0.05-0.96c-0.08-0.88-0.41-1.57-0.98-2.08c-0.57-0.51-1.26-0.76-2.09-0.76c-0.83,0-1.53,0.24-2.1,0.72
				C192.39,56.59,192.05,57.38,191.95,58.48z"/>
			<path class="st5" d="M204.27,59.19c0-0.95,0.14-1.84,0.43-2.67c0.29-0.84,0.7-1.56,1.24-2.18c0.54-0.62,1.2-1.1,1.96-1.46
				c0.77-0.35,1.63-0.53,2.57-0.53c0.95,0,1.8,0.17,2.57,0.52c0.77,0.35,1.42,0.81,1.97,1.39c0.54,0.58,0.96,1.27,1.25,2.05
				c0.29,0.79,0.44,1.61,0.44,2.47v1.14c0,0.19-0.07,0.35-0.2,0.48c-0.13,0.14-0.3,0.2-0.48,0.2h-8.47c0,0.39,0.08,0.73,0.24,1.03
				c0.16,0.3,0.38,0.55,0.65,0.75c0.27,0.2,0.58,0.35,0.94,0.46c0.35,0.1,0.72,0.15,1.09,0.15c0.54,0,0.98-0.05,1.32-0.16
				c0.34-0.11,0.62-0.25,0.84-0.42c0.19-0.14,0.34-0.23,0.46-0.28c0.12-0.05,0.28-0.08,0.48-0.08h2.03c0.19,0,0.35,0.07,0.49,0.2
				c0.14,0.14,0.21,0.3,0.19,0.48c-0.02,0.24-0.15,0.54-0.39,0.91c-0.25,0.37-0.61,0.74-1.1,1.09c-0.49,0.36-1.09,0.66-1.81,0.91
				c-0.72,0.25-1.55,0.38-2.5,0.38c-0.95,0-1.8-0.16-2.57-0.49c-0.77-0.33-1.42-0.8-1.96-1.41c-0.54-0.61-0.95-1.33-1.24-2.17
				C204.42,61.13,204.27,60.2,204.27,59.19z M210.49,55.38c-0.49,0-0.91,0.07-1.25,0.22c-0.35,0.14-0.64,0.33-0.88,0.56
				c-0.24,0.23-0.42,0.48-0.54,0.76c-0.13,0.28-0.21,0.54-0.24,0.8h5.73c-0.03-0.25-0.1-0.52-0.19-0.8
				c-0.09-0.28-0.25-0.53-0.46-0.76c-0.21-0.23-0.49-0.41-0.84-0.56C211.47,55.45,211.03,55.38,210.49,55.38z"/>
			<path class="st5" d="M237.64,65.09c0,0.19-0.07,0.35-0.2,0.48c-0.14,0.14-0.3,0.2-0.48,0.2h-1.93c-0.19,0-0.35-0.07-0.48-0.2
				c-0.14-0.14-0.2-0.3-0.2-0.48v-6.44c0-1.01-0.24-1.83-0.71-2.43c-0.47-0.61-1.2-0.91-2.18-0.91c-0.9,0-1.6,0.3-2.12,0.91
				c-0.52,0.61-0.77,1.42-0.77,2.43v6.44c0,0.19-0.07,0.35-0.2,0.48c-0.14,0.14-0.3,0.2-0.48,0.2h-1.93c-0.19,0-0.35-0.07-0.48-0.2
				c-0.14-0.14-0.2-0.3-0.2-0.48V53.28c0-0.19,0.07-0.35,0.2-0.48c0.13-0.13,0.3-0.2,0.48-0.2h1.93c0.19,0,0.35,0.07,0.48,0.2
				c0.13,0.14,0.2,0.3,0.2,0.48v0.58c0.44-0.44,0.95-0.8,1.55-1.09c0.59-0.29,1.29-0.43,2.1-0.43c1.03,0,1.89,0.16,2.59,0.48
				c0.69,0.32,1.25,0.75,1.67,1.29c0.42,0.54,0.72,1.17,0.9,1.89c0.18,0.72,0.27,1.47,0.27,2.27V65.09z"/>
			<path class="st5" d="M246.82,52.34c0.93,0,1.77,0.14,2.52,0.43c0.75,0.29,1.4,0.68,1.95,1.19c0.55,0.51,0.99,1.1,1.32,1.77
				c0.33,0.68,0.52,1.4,0.57,2.18c0.02,0.15,0.02,0.35,0.02,0.58c0,0.24,0,0.47,0,0.71c0,0.24,0,0.47,0,0.7
				c0,0.23-0.01,0.42-0.02,0.57c-0.07,0.78-0.26,1.5-0.58,2.18c-0.32,0.68-0.76,1.26-1.31,1.76c-0.55,0.5-1.2,0.89-1.95,1.18
				c-0.75,0.29-1.59,0.43-2.52,0.43c-0.93,0-1.77-0.14-2.52-0.43c-0.75-0.29-1.4-0.68-1.95-1.18c-0.55-0.5-0.98-1.09-1.31-1.76
				c-0.32-0.68-0.52-1.4-0.58-2.18c-0.02-0.15-0.03-0.34-0.04-0.57c-0.01-0.23-0.01-0.46-0.01-0.7c0-0.24,0-0.47,0.01-0.71
				c0.01-0.24,0.02-0.43,0.04-0.58c0.05-0.78,0.24-1.5,0.57-2.18c0.33-0.68,0.77-1.27,1.32-1.77c0.55-0.51,1.2-0.9,1.95-1.19
				C245.05,52.48,245.89,52.34,246.82,52.34z M249.89,58.04c-0.05-0.52-0.17-0.96-0.37-1.31c-0.19-0.35-0.44-0.62-0.72-0.82
				c-0.29-0.2-0.6-0.34-0.94-0.42c-0.34-0.08-0.68-0.11-1.04-0.11c-0.36,0-0.7,0.04-1.04,0.11c-0.34,0.08-0.65,0.22-0.94,0.42
				c-0.29,0.2-0.53,0.48-0.72,0.82c-0.19,0.35-0.32,0.78-0.37,1.31c-0.02,0.14-0.03,0.3-0.04,0.51c-0.01,0.2-0.01,0.41-0.01,0.63
				c0,0.22,0,0.44,0.01,0.65c0.01,0.21,0.02,0.38,0.04,0.49c0.05,0.52,0.17,0.96,0.37,1.31c0.19,0.35,0.43,0.62,0.72,0.82
				c0.29,0.2,0.6,0.34,0.94,0.42c0.34,0.08,0.68,0.11,1.04,0.11c0.35,0,0.7-0.04,1.04-0.11c0.34-0.08,0.65-0.22,0.94-0.42
				c0.29-0.2,0.53-0.48,0.72-0.82c0.19-0.35,0.32-0.78,0.37-1.31c0.02-0.12,0.03-0.28,0.03-0.49c0-0.21,0-0.43,0-0.65
				c0-0.22,0-0.43,0-0.63C249.91,58.35,249.9,58.18,249.89,58.04z"/>
			<path class="st5" d="M260.38,61.01c0,0.52,0.14,0.94,0.42,1.25c0.28,0.31,0.8,0.47,1.56,0.47h1.55c0.19,0,0.35,0.07,0.48,0.2
				c0.13,0.14,0.2,0.3,0.2,0.48v1.67c0,0.19-0.07,0.35-0.2,0.48c-0.14,0.14-0.3,0.2-0.48,0.2h-1.88c-1.59,0-2.81-0.38-3.66-1.15
				c-0.85-0.77-1.28-1.95-1.28-3.54v-5.45h-1.67c-0.19,0-0.35-0.07-0.48-0.2c-0.14-0.13-0.2-0.3-0.2-0.48v-1.67
				c0-0.19,0.07-0.35,0.2-0.48c0.13-0.13,0.3-0.2,0.48-0.2h1.67v-4.13c0-0.19,0.07-0.35,0.2-0.48c0.14-0.13,0.3-0.2,0.48-0.2h1.93
				c0.19,0,0.35,0.07,0.48,0.2c0.14,0.14,0.2,0.3,0.2,0.48v4.13h3.27c0.19,0,0.35,0.07,0.48,0.2c0.14,0.14,0.2,0.3,0.2,0.48v1.67
				c0,0.19-0.07,0.35-0.2,0.48c-0.13,0.14-0.3,0.2-0.48,0.2h-3.27V61.01z"/>
			<path class="st5" d="M276.99,52.59h3.52c0.19,0,0.35,0.07,0.48,0.2c0.13,0.14,0.2,0.3,0.2,0.48v1.67c0,0.19-0.07,0.35-0.2,0.48
				c-0.14,0.14-0.3,0.2-0.48,0.2h-3.52v9.46c0,0.19-0.07,0.35-0.2,0.48c-0.14,0.14-0.3,0.2-0.48,0.2h-1.93
				c-0.19,0-0.35-0.07-0.48-0.2c-0.13-0.14-0.2-0.3-0.2-0.48v-9.46h-1.67c-0.19,0-0.35-0.07-0.48-0.2c-0.14-0.13-0.2-0.3-0.2-0.48
				v-1.67c0-0.19,0.07-0.35,0.2-0.48c0.13-0.13,0.3-0.2,0.48-0.2h1.67v-1.14c0-0.81,0.12-1.5,0.35-2.07
				c0.24-0.57,0.57-1.03,1.01-1.38c0.44-0.35,0.97-0.61,1.58-0.76c0.62-0.15,1.31-0.23,2.07-0.23h2.05c0.19,0,0.35,0.07,0.48,0.2
				c0.13,0.14,0.2,0.3,0.2,0.48v1.67c0,0.19-0.07,0.35-0.2,0.48c-0.14,0.14-0.3,0.2-0.48,0.2h-1.8c-0.64,0-1.13,0.11-1.47,0.34
				c-0.34,0.23-0.51,0.66-0.51,1.31V52.59z"/>
			<path class="st5" d="M288.96,52.34c0.93,0,1.77,0.14,2.52,0.43c0.75,0.29,1.4,0.68,1.95,1.19c0.55,0.51,0.99,1.1,1.32,1.77
				c0.33,0.68,0.52,1.4,0.57,2.18c0.02,0.15,0.02,0.35,0.02,0.58c0,0.24,0,0.47,0,0.71c0,0.24,0,0.47,0,0.7
				c0,0.23-0.01,0.42-0.02,0.57c-0.07,0.78-0.26,1.5-0.58,2.18c-0.32,0.68-0.76,1.26-1.31,1.76c-0.55,0.5-1.2,0.89-1.95,1.18
				c-0.75,0.29-1.59,0.43-2.52,0.43c-0.93,0-1.77-0.14-2.52-0.43c-0.75-0.29-1.4-0.68-1.95-1.18c-0.55-0.5-0.98-1.09-1.31-1.76
				c-0.32-0.68-0.52-1.4-0.58-2.18c-0.02-0.15-0.03-0.34-0.04-0.57c-0.01-0.23-0.01-0.46-0.01-0.7c0-0.24,0-0.47,0.01-0.71
				c0.01-0.24,0.02-0.43,0.04-0.58c0.05-0.78,0.24-1.5,0.57-2.18c0.33-0.68,0.77-1.27,1.32-1.77c0.55-0.51,1.2-0.9,1.95-1.19
				C287.19,52.48,288.03,52.34,288.96,52.34z M292.02,58.04c-0.05-0.52-0.17-0.96-0.37-1.31c-0.19-0.35-0.44-0.62-0.72-0.82
				c-0.29-0.2-0.6-0.34-0.94-0.42c-0.34-0.08-0.68-0.11-1.04-0.11c-0.36,0-0.7,0.04-1.04,0.11c-0.34,0.08-0.65,0.22-0.94,0.42
				c-0.29,0.2-0.53,0.48-0.72,0.82c-0.19,0.35-0.32,0.78-0.37,1.31c-0.02,0.14-0.03,0.3-0.04,0.51c-0.01,0.2-0.01,0.41-0.01,0.63
				c0,0.22,0,0.44,0.01,0.65c0.01,0.21,0.02,0.38,0.04,0.49c0.05,0.52,0.17,0.96,0.37,1.31c0.19,0.35,0.43,0.62,0.72,0.82
				c0.29,0.2,0.6,0.34,0.94,0.42c0.34,0.08,0.68,0.11,1.04,0.11c0.35,0,0.7-0.04,1.04-0.11c0.34-0.08,0.65-0.22,0.94-0.42
				c0.29-0.2,0.53-0.48,0.72-0.82c0.19-0.35,0.32-0.78,0.37-1.31c0.02-0.12,0.03-0.28,0.03-0.49c0-0.21,0-0.43,0-0.65
				c0-0.22,0-0.43,0-0.63C292.05,58.35,292.04,58.18,292.02,58.04z"/>
			<path class="st5" d="M298.11,53.28c0-0.19,0.07-0.35,0.2-0.48c0.14-0.13,0.3-0.2,0.48-0.2h1.93c0.19,0,0.35,0.07,0.48,0.2
				c0.13,0.14,0.2,0.3,0.2,0.48v6.44c0,1.01,0.21,1.83,0.65,2.43c0.43,0.61,1.14,0.91,2.12,0.91c0.9,0,1.58-0.3,2.05-0.91
				c0.47-0.61,0.71-1.42,0.71-2.43v-6.44c0-0.19,0.07-0.35,0.2-0.48c0.14-0.13,0.3-0.2,0.48-0.2h1.93c0.19,0,0.35,0.07,0.48,0.2
				c0.13,0.14,0.2,0.3,0.2,0.48v11.81c0,0.19-0.07,0.35-0.2,0.48c-0.14,0.14-0.3,0.2-0.48,0.2h-1.93c-0.19,0-0.35-0.07-0.48-0.2
				c-0.13-0.14-0.2-0.3-0.2-0.48v-0.58c-0.39,0.39-0.87,0.74-1.45,1.05c-0.58,0.31-1.27,0.47-2.08,0.47c-1.03,0-1.88-0.16-2.56-0.48
				c-0.68-0.32-1.22-0.75-1.62-1.29c-0.41-0.54-0.69-1.17-0.86-1.89c-0.17-0.72-0.25-1.47-0.25-2.27V53.28z"/>
			<path class="st5" d="M326.1,65.09c0,0.19-0.07,0.35-0.2,0.48c-0.14,0.14-0.3,0.2-0.48,0.2h-1.93c-0.19,0-0.35-0.07-0.48-0.2
				c-0.14-0.14-0.2-0.3-0.2-0.48v-6.44c0-1.01-0.24-1.83-0.71-2.43c-0.47-0.61-1.2-0.91-2.18-0.91c-0.9,0-1.6,0.3-2.12,0.91
				c-0.52,0.61-0.77,1.42-0.77,2.43v6.44c0,0.19-0.07,0.35-0.2,0.48c-0.14,0.14-0.3,0.2-0.48,0.2h-1.93c-0.19,0-0.35-0.07-0.48-0.2
				c-0.14-0.14-0.2-0.3-0.2-0.48V53.28c0-0.19,0.07-0.35,0.2-0.48c0.13-0.13,0.3-0.2,0.48-0.2h1.93c0.19,0,0.35,0.07,0.48,0.2
				c0.13,0.14,0.2,0.3,0.2,0.48v0.58c0.44-0.44,0.95-0.8,1.55-1.09c0.59-0.29,1.29-0.43,2.1-0.43c1.03,0,1.89,0.16,2.59,0.48
				c0.69,0.32,1.25,0.75,1.67,1.29c0.42,0.54,0.72,1.17,0.9,1.89c0.18,0.72,0.27,1.47,0.27,2.27V65.09z"/>
			<path class="st5" d="M334.54,52.34c0.52,0,0.99,0.05,1.41,0.15c0.41,0.1,0.78,0.23,1.09,0.38c0.31,0.15,0.58,0.32,0.8,0.49
				c0.22,0.18,0.4,0.34,0.53,0.49v-5.4c0-0.19,0.07-0.35,0.2-0.48c0.13-0.13,0.3-0.2,0.48-0.2h1.93c0.19,0,0.35,0.07,0.48,0.2
				c0.13,0.14,0.2,0.3,0.2,0.48v16.63c0,0.19-0.07,0.35-0.2,0.48c-0.14,0.14-0.3,0.2-0.48,0.2h-1.93c-0.19,0-0.35-0.07-0.48-0.2
				c-0.14-0.14-0.2-0.3-0.2-0.48v-0.58c-0.13,0.15-0.31,0.32-0.53,0.49c-0.22,0.18-0.49,0.34-0.8,0.49
				c-0.31,0.15-0.68,0.28-1.09,0.38c-0.41,0.1-0.88,0.15-1.41,0.15c-0.85,0-1.61-0.16-2.29-0.49c-0.68-0.33-1.27-0.77-1.75-1.32
				c-0.48-0.55-0.86-1.18-1.14-1.9c-0.28-0.72-0.44-1.47-0.47-2.24c-0.02-0.25-0.03-0.55-0.03-0.89c0-0.34,0.01-0.63,0.03-0.89
				c0.03-0.78,0.19-1.53,0.47-2.24c0.28-0.72,0.66-1.35,1.14-1.9c0.48-0.55,1.06-0.99,1.75-1.32
				C332.93,52.5,333.7,52.34,334.54,52.34z M332.18,58.48c-0.05,0.47-0.05,0.95,0,1.42c0.1,1.1,0.44,1.89,1.01,2.37
				c0.57,0.48,1.28,0.72,2.1,0.72s1.53-0.24,2.09-0.74c0.57-0.49,0.89-1.19,0.98-2.1c0.03-0.25,0.05-0.57,0.05-0.96
				c0-0.39-0.02-0.71-0.05-0.96c-0.08-0.88-0.41-1.57-0.98-2.08c-0.57-0.51-1.26-0.76-2.09-0.76s-1.53,0.24-2.1,0.72
				C332.62,56.59,332.29,57.38,332.18,58.48z"/>
		</g>
		<g>
			<path class="st6" d="M196.44,90.76c0.17,0,0.32,0.06,0.44,0.19c0.12,0.12,0.19,0.27,0.19,0.44v2.46c0,0.17-0.06,0.32-0.19,0.44
				c-0.12,0.12-0.27,0.19-0.44,0.19h-11.01c-0.17,0-0.32-0.06-0.44-0.19c-0.12-0.12-0.19-0.27-0.19-0.44V78.84
				c0-0.17,0.06-0.32,0.19-0.44c0.12-0.12,0.27-0.19,0.44-0.19h10.83c0.17,0,0.32,0.06,0.44,0.19c0.12,0.12,0.19,0.27,0.19,0.44
				v2.46c0,0.17-0.06,0.32-0.19,0.44c-0.12,0.12-0.27,0.19-0.44,0.19h-7.16v2.51h6.65c0.17,0,0.32,0.06,0.44,0.19
				c0.12,0.12,0.19,0.27,0.19,0.44v2.46c0,0.17-0.06,0.32-0.19,0.44c-0.13,0.12-0.27,0.19-0.44,0.19h-6.65v2.6H196.44z"/>
			<path class="st6" d="M206.66,78.21c1.02,0,1.94,0.11,2.74,0.33c0.8,0.22,1.49,0.54,2.06,0.98c0.57,0.43,1,0.99,1.3,1.66
				c0.3,0.67,0.45,1.46,0.45,2.36c0,1.16-0.24,2.13-0.72,2.89c-0.48,0.77-1.16,1.35-2.04,1.75l2.88,5.53
				c0.05,0.09,0.07,0.18,0.07,0.26c0,0.14-0.05,0.26-0.15,0.36c-0.1,0.1-0.22,0.15-0.36,0.15h-3.16c-0.31,0-0.53-0.07-0.66-0.21
				c-0.13-0.14-0.24-0.28-0.31-0.42l-2.58-4.97h-2.14v4.97c0,0.17-0.06,0.32-0.19,0.44c-0.13,0.12-0.27,0.19-0.44,0.19h-3.04
				c-0.17,0-0.32-0.06-0.44-0.19c-0.12-0.12-0.19-0.27-0.19-0.44V78.84c0-0.17,0.06-0.32,0.19-0.44c0.12-0.12,0.27-0.19,0.44-0.19
				H206.66z M204.03,85.25h2.63c0.65,0,1.19-0.12,1.62-0.37c0.43-0.25,0.64-0.7,0.64-1.35c0-0.65-0.21-1.1-0.64-1.35
				c-0.43-0.25-0.96-0.37-1.62-0.37h-2.63V85.25z"/>
			<path class="st6" d="M222.81,78.21c1.02,0,1.94,0.11,2.74,0.33c0.8,0.22,1.49,0.54,2.06,0.98c0.57,0.43,1,0.99,1.3,1.66
				c0.3,0.67,0.45,1.46,0.45,2.36c0,1.16-0.24,2.13-0.72,2.89c-0.48,0.77-1.16,1.35-2.04,1.75l2.88,5.53
				c0.05,0.09,0.07,0.18,0.07,0.26c0,0.14-0.05,0.26-0.15,0.36c-0.1,0.1-0.22,0.15-0.36,0.15h-3.16c-0.31,0-0.53-0.07-0.66-0.21
				c-0.13-0.14-0.24-0.28-0.31-0.42l-2.58-4.97h-2.14v4.97c0,0.17-0.06,0.32-0.19,0.44c-0.13,0.12-0.27,0.19-0.44,0.19h-3.04
				c-0.17,0-0.32-0.06-0.44-0.19c-0.12-0.12-0.19-0.27-0.19-0.44V78.84c0-0.17,0.06-0.32,0.19-0.44c0.12-0.12,0.27-0.19,0.44-0.19
				H222.81z M220.19,85.25h2.63c0.65,0,1.19-0.12,1.62-0.37c0.43-0.25,0.64-0.7,0.64-1.35c0-0.65-0.21-1.1-0.64-1.35
				c-0.43-0.25-0.96-0.37-1.62-0.37h-2.63V85.25z"/>
			<path class="st6" d="M231.5,84.28c0.05-0.87,0.24-1.68,0.57-2.45c0.33-0.77,0.81-1.43,1.42-2c0.61-0.57,1.36-1.01,2.23-1.35
				c0.88-0.33,1.89-0.5,3.03-0.5c1.13,0,2.14,0.17,3.02,0.5c0.88,0.33,1.63,0.78,2.24,1.35c0.61,0.57,1.08,1.23,1.42,2
				c0.33,0.77,0.52,1.58,0.57,2.45c0.03,0.67,0.05,1.36,0.05,2.09c0,0.73-0.01,1.41-0.05,2.04c-0.05,0.87-0.24,1.68-0.57,2.45
				c-0.33,0.77-0.81,1.44-1.42,2.01c-0.61,0.57-1.36,1.02-2.24,1.35c-0.88,0.33-1.89,0.49-3.02,0.49c-1.15,0-2.16-0.16-3.03-0.49
				c-0.88-0.33-1.62-0.77-2.23-1.35c-0.61-0.57-1.09-1.24-1.42-2.01c-0.33-0.77-0.52-1.58-0.57-2.45c-0.03-0.64-0.05-1.32-0.05-2.04
				C231.46,85.64,231.47,84.94,231.5,84.28z M241.7,88.3c0.01-0.28,0.03-0.59,0.05-0.93c0.02-0.34,0.02-0.69,0.02-1.05
				c0-0.36-0.01-0.7-0.02-1.03c-0.02-0.33-0.03-0.63-0.05-0.9c-0.03-0.39-0.11-0.74-0.24-1.07c-0.13-0.33-0.32-0.61-0.56-0.85
				c-0.24-0.24-0.54-0.43-0.89-0.57c-0.36-0.14-0.78-0.21-1.25-0.21c-0.48,0-0.9,0.07-1.25,0.21c-0.36,0.14-0.66,0.33-0.89,0.57
				c-0.24,0.24-0.43,0.52-0.56,0.85c-0.13,0.33-0.21,0.68-0.24,1.07c-0.03,0.26-0.05,0.56-0.06,0.9c-0.01,0.33-0.01,0.68-0.01,1.03
				c0,0.36,0,0.71,0.01,1.05c0.01,0.34,0.03,0.65,0.06,0.93c0.06,0.77,0.33,1.42,0.8,1.93c0.47,0.51,1.19,0.77,2.15,0.77
				c0.96,0,1.67-0.26,2.14-0.77C241.35,89.72,241.63,89.07,241.7,88.3z"/>
			<path class="st6" d="M255.65,78.21c1.02,0,1.94,0.11,2.74,0.33c0.8,0.22,1.49,0.54,2.06,0.98c0.57,0.43,1,0.99,1.3,1.66
				c0.3,0.67,0.45,1.46,0.45,2.36c0,1.16-0.24,2.13-0.72,2.89c-0.48,0.77-1.16,1.35-2.04,1.75l2.88,5.53
				c0.05,0.09,0.07,0.18,0.07,0.26c0,0.14-0.05,0.26-0.15,0.36c-0.1,0.1-0.22,0.15-0.36,0.15h-3.16c-0.31,0-0.53-0.07-0.66-0.21
				c-0.13-0.14-0.24-0.28-0.31-0.42l-2.58-4.97h-2.14v4.97c0,0.17-0.06,0.32-0.19,0.44c-0.13,0.12-0.27,0.19-0.44,0.19h-3.04
				c-0.17,0-0.32-0.06-0.44-0.19c-0.12-0.12-0.19-0.27-0.19-0.44V78.84c0-0.17,0.06-0.32,0.19-0.44c0.12-0.12,0.27-0.19,0.44-0.19
				H255.65z M253.02,85.25h2.63c0.65,0,1.19-0.12,1.62-0.37c0.43-0.25,0.64-0.7,0.64-1.35c0-0.65-0.21-1.1-0.64-1.35
				c-0.43-0.25-0.96-0.37-1.62-0.37h-2.63V85.25z"/>
			<path class="st6" d="M277.47,94.48c-0.17,0-0.32-0.06-0.44-0.19c-0.12-0.12-0.19-0.27-0.19-0.44v-2.37h-7.32
				c-0.17,0-0.32-0.06-0.44-0.19c-0.12-0.12-0.19-0.27-0.19-0.44v-2.46c0-0.4,0.1-0.74,0.3-1l6.95-8.76
				c0.14-0.17,0.27-0.28,0.38-0.34s0.27-0.08,0.48-0.08h3.51c0.17,0,0.32,0.06,0.44,0.19c0.12,0.12,0.19,0.27,0.19,0.44v8.92h2
				c0.17,0,0.32,0.06,0.44,0.19c0.12,0.12,0.19,0.27,0.19,0.44v2.46c0,0.17-0.06,0.32-0.19,0.44c-0.13,0.12-0.27,0.19-0.44,0.19h-2
				v2.37c0,0.17-0.06,0.32-0.19,0.44c-0.13,0.12-0.27,0.19-0.44,0.19H277.47z M276.95,87.76v-4.28l-3.39,4.28H276.95z"/>
			<path class="st6" d="M292.5,77.98c1.16,0,2.16,0.17,3,0.51c0.84,0.34,1.53,0.8,2.08,1.37c0.55,0.57,0.96,1.24,1.23,2.01
				c0.27,0.77,0.43,1.57,0.48,2.4c0.03,0.67,0.05,1.36,0.05,2.09c0,0.73-0.02,1.41-0.05,2.04c-0.05,0.84-0.21,1.64-0.48,2.4
				c-0.27,0.77-0.68,1.44-1.23,2.01c-0.55,0.57-1.24,1.03-2.08,1.37c-0.84,0.34-1.83,0.51-3,0.51c-1.16,0-2.16-0.17-3-0.51
				c-0.84-0.34-1.53-0.8-2.08-1.37c-0.55-0.57-0.96-1.24-1.23-2.01c-0.27-0.77-0.43-1.57-0.48-2.4c-0.03-0.64-0.05-1.32-0.05-2.04
				c0-0.73,0.01-1.43,0.05-2.09c0.05-0.84,0.21-1.64,0.48-2.4c0.27-0.77,0.68-1.44,1.23-2.01c0.55-0.57,1.24-1.03,2.08-1.37
				C290.34,78.15,291.34,77.98,292.5,77.98z M294.99,88.3c0.06-1.32,0.06-2.62,0-3.9c-0.03-0.39-0.09-0.74-0.17-1.07
				c-0.09-0.33-0.22-0.61-0.41-0.85c-0.19-0.24-0.43-0.43-0.74-0.57c-0.31-0.14-0.7-0.21-1.16-0.21c-0.46,0-0.85,0.07-1.16,0.21
				c-0.31,0.14-0.56,0.33-0.74,0.57c-0.19,0.24-0.33,0.52-0.42,0.85c-0.09,0.33-0.15,0.68-0.16,1.07c-0.08,1.29-0.08,2.59,0,3.9
				c0.01,0.39,0.07,0.74,0.15,1.07c0.09,0.33,0.22,0.61,0.42,0.85c0.19,0.24,0.44,0.43,0.75,0.57c0.31,0.14,0.7,0.21,1.16,0.21
				c0.46,0,0.85-0.07,1.16-0.21c0.31-0.14,0.56-0.33,0.75-0.57c0.19-0.24,0.33-0.52,0.42-0.85
				C294.92,89.04,294.97,88.69,294.99,88.3z"/>
			<path class="st6" d="M309.79,94.48c-0.17,0-0.32-0.06-0.44-0.19c-0.12-0.12-0.19-0.27-0.19-0.44v-2.37h-7.32
				c-0.17,0-0.32-0.06-0.44-0.19s-0.19-0.27-0.19-0.44v-2.46c0-0.4,0.1-0.74,0.3-1l6.95-8.76c0.14-0.17,0.27-0.28,0.38-0.34
				c0.12-0.05,0.27-0.08,0.48-0.08h3.51c0.17,0,0.32,0.06,0.44,0.19c0.12,0.12,0.19,0.27,0.19,0.44v8.92h2
				c0.17,0,0.32,0.06,0.44,0.19c0.12,0.12,0.19,0.27,0.19,0.44v2.46c0,0.17-0.06,0.32-0.19,0.44c-0.13,0.12-0.27,0.19-0.44,0.19h-2
				v2.37c0,0.17-0.06,0.32-0.19,0.44c-0.13,0.12-0.27,0.19-0.44,0.19H309.79z M309.28,87.76v-4.28l-3.39,4.28H309.28z"/>
		</g>
	</g>
</g>
</svg>
