<svg xmlns="http://www.w3.org/2000/svg" xmlns:xlink="http://www.w3.org/1999/xlink" viewBox="0 0 109.89 239.28"><defs><style>.cls-1{fill:#3a439b;}.cls-2{fill:#464eb8;}.cls-3{fill:url(#Degradado_sin_nombre_42);}.cls-4{fill:url(#Degradado_sin_nombre_42-2);}.cls-5{fill:url(#Degradado_sin_nombre_42-3);}.cls-6{fill:url(#Degradado_sin_nombre_42-4);}.cls-7{fill:url(#Degradado_sin_nombre_42-5);}.cls-8{fill:#fff;}.cls-9{fill:#3b449b;}</style><linearGradient id="Degradado_sin_nombre_42" x1="274.8" y1="241.39" x2="288.87" y2="241.39" gradientUnits="userSpaceOnUse"><stop offset="0" stop-color="#ffe8c5"/><stop offset="1" stop-color="#ffe8c7"/></linearGradient><linearGradient id="Degradado_sin_nombre_42-2" x1="259.76" y1="227.82" x2="273.43" y2="227.82" xlink:href="#Degradado_sin_nombre_42"/><linearGradient id="Degradado_sin_nombre_42-3" x1="238.73" y1="222.83" x2="252.88" y2="222.83" xlink:href="#Degradado_sin_nombre_42"/><linearGradient id="Degradado_sin_nombre_42-4" x1="218.7" y1="228.94" x2="232.86" y2="228.94" xlink:href="#Degradado_sin_nombre_42"/><linearGradient id="Degradado_sin_nombre_42-5" x1="203.3" y1="242.07" x2="217.28" y2="242.07" xlink:href="#Degradado_sin_nombre_42"/></defs><title>3600801</title><g id="OBJECTS"><path class="cls-1" d="M282.32,226.28H211.89a3.06,3.06,0,0,1-3-3.05v-50.1a38.26,38.26,0,0,1,76.52,0v50.1A3,3,0,0,1,282.32,226.28Zm-67.38-6.1h64.33V173.13a32.17,32.17,0,1,0-64.33,0Z" transform="translate(-192.16 -134.87)"/><polygon class="cls-2" points="99.58 52.44 10.31 52.44 0 148.11 109.89 148.11 99.58 52.44"/><path class="cls-3" d="M287.41,236.57l-.64,3.12a1,1,0,0,0,.15.78l1.77,2.65a1,1,0,0,1-.75,1.6l-3.16.35a1,1,0,0,0-.7.39l-2,2.5a1,1,0,0,1-1.75-.21l-1.31-2.9a1.06,1.06,0,0,0-.59-.55l-3-1.1a1,1,0,0,1-.33-1.73l2.35-2.15a1,1,0,0,0,.34-.72l.12-3.18a1,1,0,0,1,1.54-.86l2.77,1.58a1,1,0,0,0,.79.09l3.07-.86A1,1,0,0,1,287.41,236.57Z" transform="translate(-192.16 -134.87)"/><path class="cls-4" d="M268.82,221.52l.83,3.07a1,1,0,0,0,.49.63l2.77,1.57a1,1,0,0,1,0,1.77l-2.67,1.73a1.06,1.06,0,0,0-.45.66l-.63,3.12a1,1,0,0,1-1.67.6l-2.47-2a1.06,1.06,0,0,0-.77-.22l-3.16.36a1,1,0,0,1-1.08-1.4l1.14-3a1,1,0,0,0,0-.8l-1.31-2.9a1,1,0,0,1,1-1.46l3.18.17a1,1,0,0,0,.75-.27l2.35-2.15A1,1,0,0,1,268.82,221.52Z" transform="translate(-192.16 -134.87)"/><path class="cls-5" d="M246.76,216.54l1.61,2.74a1,1,0,0,0,.64.48l3.09.77a1,1,0,0,1,.52,1.69l-2.11,2.38a1.05,1.05,0,0,0-.26.76l.22,3.18a1,1,0,0,1-1.44,1l-2.92-1.27a1.06,1.06,0,0,0-.8,0l-2.95,1.19a1,1,0,0,1-1.42-1.06l.31-3.17a1,1,0,0,0-.23-.76L239,222a1,1,0,0,1,.57-1.67l3.11-.68a1,1,0,0,0,.65-.46l1.7-2.7A1,1,0,0,1,246.76,216.54Z" transform="translate(-192.16 -134.87)"/><path class="cls-6" d="M222.29,222.35l3,1.17a1.06,1.06,0,0,0,.8,0l2.91-1.29a1,1,0,0,1,1.45,1l-.2,3.18a1,1,0,0,0,.26.75l2.12,2.37a1,1,0,0,1-.51,1.69L229,232a1,1,0,0,0-.63.48l-1.6,2.76a1,1,0,0,1-1.77,0l-1.7-2.69a1,1,0,0,0-.66-.45l-3.11-.67a1,1,0,0,1-.58-1.67l2-2.46a1,1,0,0,0,.23-.76l-.32-3.17A1,1,0,0,1,222.29,222.35Z" transform="translate(-192.16 -134.87)"/><path class="cls-7" d="M205.63,236.35l3.1.71a1,1,0,0,0,.79-.13l2.69-1.71a1,1,0,0,1,1.58.77l.28,3.18a1.05,1.05,0,0,0,.37.7l2.46,2a1,1,0,0,1-.25,1.75l-2.93,1.24a1.1,1.1,0,0,0-.56.58l-1.16,3a1,1,0,0,1-1.74.3l-2.09-2.4a1,1,0,0,0-.72-.35l-3.18-.2a1,1,0,0,1-.82-1.56l1.64-2.73a1,1,0,0,0,.11-.79l-.8-3.08A1,1,0,0,1,205.63,236.35Z" transform="translate(-192.16 -134.87)"/><path class="cls-8" d="M288.43,237.59l-.65,3.12a1.07,1.07,0,0,0,.15.78l1.78,2.65a1,1,0,0,1-.75,1.6l-3.16.35a1,1,0,0,0-.7.38l-2,2.51a1,1,0,0,1-1.75-.22l-1.32-2.9a1,1,0,0,0-.58-.54l-3-1.1a1,1,0,0,1-.34-1.74l2.36-2.14a1.05,1.05,0,0,0,.33-.72l.13-3.19a1,1,0,0,1,1.54-.85l2.77,1.57a1,1,0,0,0,.79.1l3.06-.87A1,1,0,0,1,288.43,237.59Z" transform="translate(-192.16 -134.87)"/><path class="cls-8" d="M269.84,222.53l.83,3.08a1,1,0,0,0,.48.63l2.78,1.57a1,1,0,0,1,.05,1.76l-2.67,1.74a1,1,0,0,0-.45.66l-.64,3.12a1,1,0,0,1-1.66.59l-2.47-2a1.08,1.08,0,0,0-.77-.22l-3.17.36a1,1,0,0,1-1.08-1.4l1.15-3a1.06,1.06,0,0,0,0-.8l-1.32-2.9a1,1,0,0,1,1-1.46l3.19.17a1.1,1.1,0,0,0,.75-.27l2.35-2.15A1,1,0,0,1,269.84,222.53Z" transform="translate(-192.16 -134.87)"/><path class="cls-8" d="M247.78,217.55l1.61,2.75a1,1,0,0,0,.64.48l3.09.77a1,1,0,0,1,.52,1.69l-2.11,2.38a1,1,0,0,0-.26.76l.22,3.17a1,1,0,0,1-1.45,1l-2.92-1.27a1,1,0,0,0-.79,0l-3,1.18a1,1,0,0,1-1.41-1.05l.31-3.17a1.08,1.08,0,0,0-.24-.77L240,223a1,1,0,0,1,.57-1.67l3.11-.69a1,1,0,0,0,.65-.46l1.69-2.69A1,1,0,0,1,247.78,217.55Z" transform="translate(-192.16 -134.87)"/><path class="cls-8" d="M223.3,223.36l3,1.18a1.06,1.06,0,0,0,.8,0l2.91-1.29a1,1,0,0,1,1.45,1l-.2,3.18a1.05,1.05,0,0,0,.26.76l2.13,2.37a1,1,0,0,1-.51,1.69L230,233a1,1,0,0,0-.64.48l-1.6,2.75a1,1,0,0,1-1.76,0l-1.71-2.69a1,1,0,0,0-.65-.46l-3.11-.67a1,1,0,0,1-.58-1.67l2-2.45a1,1,0,0,0,.23-.76l-.32-3.17A1,1,0,0,1,223.3,223.36Z" transform="translate(-192.16 -134.87)"/><path class="cls-8" d="M206.65,237.37l3.1.71a1.05,1.05,0,0,0,.79-.14l2.68-1.71a1,1,0,0,1,1.59.78l.28,3.17a1,1,0,0,0,.37.71l2.46,2a1,1,0,0,1-.25,1.75l-2.93,1.25a1,1,0,0,0-.56.57l-1.16,3a1,1,0,0,1-1.74.3l-2.1-2.41a1.08,1.08,0,0,0-.71-.35l-3.18-.19a1,1,0,0,1-.83-1.56l1.64-2.73a1.1,1.1,0,0,0,.12-.79l-.8-3.09A1,1,0,0,1,206.65,237.37Z" transform="translate(-192.16 -134.87)"/><polygon class="cls-9" points="13.54 56.09 99.58 52.44 10.31 52.44 0 148.11 13.54 56.09"/><text x="-192.16" y="-134.87"/><text x="-192.16" y="-134.87"/></g></svg>